<svg xmlns="http://www.w3.org/2000/svg" width="96.81" height="76.47" viewBox="0 0 96.81 76.47">
  <defs>
    <style>
      .cls-1 {
        fill: #d8d8d7;
        fill-rule: evenodd;
      }
    </style>
  </defs>
  <path id="_" data-name="“" class="cls-1" d="M1618.41,5700.48h33.54v-22.11a68.412,68.412,0,0,1,3.81-23.88,102.647,102.647,0,0,1,9.23-18.9l-19.92-11.57a67.008,67.008,0,0,0-10.4,11.13,88.249,88.249,0,0,0-8.43,13.63,82.147,82.147,0,0,0-5.71,14.79,54.829,54.829,0,0,0-2.12,14.8v22.11Zm50.24,0h33.55v-22.11q0-13.635,3.8-23.88a103.288,103.288,0,0,1,9.23-18.9l-19.92-11.57a67.43,67.43,0,0,0-10.4,11.13,88.966,88.966,0,0,0-8.42,13.63,82.188,82.188,0,0,0-5.72,14.79,55.226,55.226,0,0,0-2.12,14.8v22.11Z" transform="translate(-1618.41 -5624.03)"/>
</svg>
