<svg xmlns="http://www.w3.org/2000/svg" width="97.06" height="76.5" viewBox="0 0 97.06 76.5">
  <defs>
    <style>
      .cls-1 {
        fill: #d8d8d7;
        fill-rule: evenodd;
      }
    </style>
  </defs>
  <path id="_copy" data-name="“ copy" class="cls-1" d="M2784.56,5779.14h-33.62v-22.12a68.212,68.212,0,0,0-3.82-23.88,102.391,102.391,0,0,0-9.25-18.9l19.97-11.58a67.2,67.2,0,0,1,10.42,11.14,88.308,88.308,0,0,1,8.44,13.63,82.519,82.519,0,0,1,5.73,14.79,54.908,54.908,0,0,1,2.13,14.8v22.12Zm-50.36,0h-33.62v-22.12a68.212,68.212,0,0,0-3.82-23.88,102.364,102.364,0,0,0-9.24-18.9l19.96-11.58a66.785,66.785,0,0,1,10.42,11.14,89.144,89.144,0,0,1,8.45,13.63,82.478,82.478,0,0,1,5.72,14.79,54.908,54.908,0,0,1,2.13,14.8v22.12Z" transform="translate(-2687.5 -5702.66)"/>
</svg>
