<svg xmlns="http://www.w3.org/2000/svg" width="149.88" height="150" viewBox="0 0 149.88 150">
  <defs>
    <style>
      .cls-1 {
        fill: #004576;
      }

      .cls-1, .cls-2, .cls-3 {
        fill-rule: evenodd;
      }

      .cls-2 {
        fill: #003860;
      }

      .cls-3 {
        fill: #fff;
      }
    </style>
  </defs>
  <path id="Ellipse_4_copy_7" data-name="Ellipse 4 copy 7" class="cls-1" d="M1751.94,3799a75,75,0,1,1-74.94,75A74.972,74.972,0,0,1,1751.94,3799Z" transform="translate(-1677 -3799)"/>
  <path class="cls-2" d="M1756.47,3948.85L1714,3895s-1.49-18.01,10-17l-5-10s-0.53-13.25,10-11l13,6,7-14h8l3,1,11,10,5-4h5l3,2,39.21,39.21A74.977,74.977,0,0,1,1756.47,3948.85Z" transform="translate(-1677 -3799)"/>
  <path class="cls-3" d="M1789.35,3895.64a1.527,1.527,0,0,1-1.52,1.41h-12.91a1.51,1.51,0,0,1,0-3.02h11.5l0.53-7.61a5.591,5.591,0,0,0-3.41-4.91,28.766,28.766,0,0,0-9.17-1.67,1.51,1.51,0,0,1,.03-3.02h0.03a31.561,31.561,0,0,1,10.14,1.85,8.592,8.592,0,0,1,5.4,7.95Zm-11.45-22.09c-4.46,0-8.09-4.07-8.09-9.06s3.63-9.07,8.09-9.07,8.07,4.07,8.07,9.07S1782.35,3873.55,1777.9,3873.55Zm0-15.11c-2.79,0-5.06,2.71-5.06,6.05s2.27,6.04,5.06,6.04,5.05-2.71,5.05-6.04S1780.68,3858.44,1777.9,3858.44Zm-5.95,30.26-0.72,10.44a3.019,3.019,0,0,1-3.02,2.81h-32.44a3.019,3.019,0,0,1-3.02-2.81c-0.25-3.5-.48-7.01-0.71-10.45-0.29-4.23,2.87-8.94,7.05-10.48a38.381,38.381,0,0,1,25.77-.01C1769.07,3879.75,1772.24,3884.45,1771.95,3888.7Zm-9.15-4.82a32.4,32.4,0,0,0-21.64.01,5.229,5.229,0,0,0-3.08,4.39c0.16,2.53.34,5.08,0.51,7.63h26.79l0.52-7.62A5.211,5.211,0,0,0,1762.8,3883.88Zm-10.6-11.48c-6.32,0-11.46-5.7-11.46-12.71s5.14-12.7,11.46-12.7,11.45,5.7,11.45,12.7S1758.51,3872.4,1752.2,3872.4Zm0-19.38c-2.98,0-5.4,2.99-5.4,6.67s2.42,6.67,5.4,6.67,5.39-2.99,5.39-6.67S1755.18,3853.02,1752.2,3853.02Zm-26.16,20.53c-4.45,0-8.08-4.07-8.08-9.06s3.63-9.07,8.08-9.07,8.08,4.07,8.08,9.07S1730.49,3873.55,1726.04,3873.55Zm0-15.11c-2.79,0-5.05,2.71-5.05,6.05s2.26,6.04,5.05,6.04,5.06-2.71,5.06-6.04S1728.83,3858.44,1726.04,3858.44Zm3.47,18.38a1.587,1.587,0,0,1,1.54,1.49,1.509,1.509,0,0,1-1.49,1.53,28.817,28.817,0,0,0-9.17,1.67,5.563,5.563,0,0,0-3.4,4.91l0.52,7.61h11.5a1.51,1.51,0,1,1,0,3.02h-12.92a1.508,1.508,0,0,1-1.5-1.41l-0.62-9.02a8.588,8.588,0,0,1,5.38-7.95A31.681,31.681,0,0,1,1729.51,3876.82Z" transform="translate(-1677 -3799)"/>
</svg>
