<svg xmlns="http://www.w3.org/2000/svg" width="149.87" height="150" viewBox="0 0 149.87 150">
  <defs>
    <style>
      .cls-1 {
        fill: #035091;
      }

      .cls-2 {
        fill: #023967;
      }

      .cls-2, .cls-3 {
        fill-rule: evenodd;
      }

      .cls-3 {
        fill: #fff;
      }
    </style>
  </defs>
  <circle id="Ellipse_4_copy_7" data-name="Ellipse 4 copy 7" class="cls-1" cx="74.935" cy="75" r="74.935"/>
  <path class="cls-2" d="M2071.93,3946.26L2026,3902l-2-12,4-6,6-7,1-8,5-8,3-9,2-1h9l2-9,10,3,7,2,4,4,46.14,46.14A75.109,75.109,0,0,1,2071.93,3946.26Z" transform="translate(-1976.91 -3799)"/>
  <path class="cls-3" d="M2083.72,3873.76a1.311,1.311,0,0,1-1.29-1.34c0-15.31-12.06-27.76-26.88-27.76a1.336,1.336,0,0,1,0-2.67c16.24,0,29.46,13.65,29.46,30.43A1.317,1.317,0,0,1,2083.72,3873.76Zm-8.27,8.5a2.738,2.738,0,0,1,.33,2.18,2.691,2.691,0,0,1-1.37,1.7l-23.54,11.69a2.7,2.7,0,0,1-1.13.26,2.531,2.531,0,0,1-1.4-.45l-3.32,3.42c2.1,1.76,4.45,1.99,5.43.98a2.517,2.517,0,0,1,3.65,0,2.717,2.717,0,0,1,0,3.78,7.269,7.269,0,0,1-5.33,2.19,11.4,11.4,0,0,1-7.71-3.42,12.254,12.254,0,0,1-15.38-1.96,13.288,13.288,0,0,1,.01-18.39l4.83-4.99a2.734,2.734,0,0,1-.17-2.62l11.31-24.32a2.6,2.6,0,0,1,1.64-1.42,2.548,2.548,0,0,1,2.11.34A105.832,105.832,0,0,1,2075.45,3882.26Zm-46.1,5.76a7.828,7.828,0,0,0,0,10.84,7.421,7.421,0,0,0,10.49,0l5.31-5.49a57.576,57.576,0,0,0-10.49-10.83Zm15.68-30.6-9.05,19.46a62.653,62.653,0,0,1,14.64,15.13l18.85-9.35A100.624,100.624,0,0,0,2045.03,3857.42Zm29.12,15c0-10.59-8.34-19.21-18.6-19.21a1.341,1.341,0,0,1,0-2.68c11.68,0,21.19,9.82,21.19,21.89A1.3,1.3,0,1,1,2074.15,3872.42Z" transform="translate(-1976.91 -3799)"/>
</svg>
