<svg xmlns="http://www.w3.org/2000/svg" width="149.88" height="150" viewBox="0 0 149.88 150">
  <defs>
    <style>
      .cls-1 {
        fill: #98bf11;
      }

      .cls-1, .cls-2, .cls-3 {
        fill-rule: evenodd;
      }

      .cls-2 {
        fill: #76940d;
        opacity: 0.5;
      }

      .cls-3 {
        fill: #fff;
      }
    </style>
  </defs>
  <path id="Ellipse_4_copy_8" data-name="Ellipse 4 copy 8" class="cls-1" d="M1751.94,4069a75,75,0,1,1-74.94,75A74.972,74.972,0,0,1,1751.94,4069Z" transform="translate(-1677 -4069)"/>
  <path class="cls-2" d="M1717,4161s-0.52-7.67,6-16c1.79-2.29-1.03-7.4,0-13,0.78-4.22,10.28-11.13,12-13,8.94-22.02,25-13,25-13s11.55,10.55,25,24c0.43,0.43,2.56-1.44,3-1,17.09,17.14,34.71,39.71,34.71,39.71a75.115,75.115,0,0,1-50.51,47.49Z" transform="translate(-1677 -4069)"/>
  <path id="Shape_817_copy" data-name="Shape 817 copy" class="cls-3" d="M1787.56,4130.77l-7.21,7.41a1.378,1.378,0,0,1-2,0l-7.2-7.44a1.492,1.492,0,0,1,0-2.06,1.383,1.383,0,0,1,2,0l5.28,5.45a14.676,14.676,0,0,0-13.3-14.86,15.057,15.057,0,0,1-4.19,9.14,14.267,14.267,0,0,1-20.61,0,15.342,15.342,0,0,1,0-21.24,14.267,14.267,0,0,1,20.61,0,15.082,15.082,0,0,1,4.19,9.18,17.5,17.5,0,0,1,16.09,16.82l4.35-4.46a1.383,1.383,0,0,1,2,0A1.483,1.483,0,0,1,1787.56,4130.77Zm-28.62-21.54a11.49,11.49,0,0,0-16.61,0,12.361,12.361,0,0,0-.84,16.14,21.479,21.479,0,0,1,6.52-1.89c-0.08-.57-0.15-1.15-0.23-1.72a1.9,1.9,0,0,1-.93-1.27c-0.06-.53-0.12-1.06-0.18-1.6a0.432,0.432,0,0,1-.28.15l-0.04.01a0.456,0.456,0,0,1-.45-0.42l-0.25-2.46a0.475,0.475,0,0,1,.4-0.51h0.04a0.465,0.465,0,0,1,.23.06c-0.06-.47-0.11-0.93-0.16-1.41-0.05-.63-0.35-2.34.84-3.44a5.7,5.7,0,0,1,7.27,0c1.19,1.1.88,2.81,0.84,3.44-0.05.48-.11,0.94-0.16,1.41a0.456,0.456,0,0,1,.22-0.06h0.04a0.475,0.475,0,0,1,.41.51l-0.25,2.46a0.456,0.456,0,0,1-.45.42l-0.04-.01a0.432,0.432,0,0,1-.28-0.15c-0.07.54-.13,1.07-0.19,1.6a1.911,1.911,0,0,1-.92,1.27c-0.08.57-.16,1.15-0.24,1.72a21.458,21.458,0,0,1,6.53,1.89A12.392,12.392,0,0,0,1758.94,4109.23ZM1732,4131.31a1.424,1.424,0,0,1-1.37,1.08,1.487,1.487,0,0,1-.36-0.05,1.465,1.465,0,0,1-1-1.79l1.94-7.42a15.065,15.065,0,0,0-5.84,19.28,14.215,14.215,0,0,1,15.52,3.4,15.342,15.342,0,0,1,0,21.24,14.256,14.256,0,0,1-20.6,0,15.342,15.342,0,0,1,0-21.24,14.394,14.394,0,0,1,2.55-2.09,18.068,18.068,0,0,1,6.18-22.61l-5.94-1.66a1.473,1.473,0,0,1-1-1.79,1.417,1.417,0,0,1,1.74-1.02l9.83,2.74a1.453,1.453,0,0,1,.99,1.78Zm-9.71,16.56a12.378,12.378,0,0,0-.85,16.14,21.54,21.54,0,0,1,6.53-1.89c-0.08-.57-0.16-1.14-0.24-1.72a1.963,1.963,0,0,1-.93-1.27c-0.05-.53-0.12-1.06-0.18-1.59a0.421,0.421,0,0,1-.28.14c-0.01,0-.03.01-0.04,0.01a0.456,0.456,0,0,1-.45-0.42l-0.25-2.45a0.463,0.463,0,0,1,.41-0.51l0.04-.01a0.428,0.428,0,0,1,.22.06c-0.05-.47-0.11-0.93-0.16-1.4-0.04-.64-0.35-2.34.85-3.44a5.684,5.684,0,0,1,7.26,0c1.2,1.1.89,2.8,0.85,3.44-0.06.47-.11,0.93-0.17,1.4a0.465,0.465,0,0,1,.23-0.06c0.01,0,.03.01,0.04,0.01a0.449,0.449,0,0,1,.4.51l-0.25,2.45a0.454,0.454,0,0,1-.44.42l-0.05-.01a0.4,0.4,0,0,1-.27-0.14c-0.07.53-.13,1.06-0.19,1.59a1.945,1.945,0,0,1-.92,1.27c-0.09.58-.16,1.15-0.24,1.72a21.2,21.2,0,0,1,6.53,1.9,12.391,12.391,0,0,0-.85-16.15A11.478,11.478,0,0,0,1722.29,4147.87Zm20.14,25.32,9.85-2.7a1.4,1.4,0,0,1,1.72,1.03,1.457,1.457,0,0,1-1,1.79l-7.2,1.98a14.142,14.142,0,0,0,19.43-4.92,14.533,14.533,0,0,1-4.85-3.32,15.342,15.342,0,0,1,0-21.24,14.256,14.256,0,0,1,20.6,0,15.342,15.342,0,0,1,0,21.24,14.236,14.236,0,0,1-13,4.14,1.378,1.378,0,0,1-.13.39,17.159,17.159,0,0,1-14.82,8.65,16.793,16.793,0,0,1-7.84-2l1.59,6.15a1.455,1.455,0,0,1-1.01,1.78,1.119,1.119,0,0,1-.36.05,1.413,1.413,0,0,1-1.36-1.08l-2.62-10.16A1.467,1.467,0,0,1,1742.43,4173.19Zm23.66-18.88c0.02,0,.03-0.01.05-0.01a0.428,0.428,0,0,1,.22.06c-0.05-.47-0.1-0.93-0.15-1.4-0.05-.64-0.35-2.34.84-3.44a5.684,5.684,0,0,1,7.26,0c1.2,1.1.89,2.8,0.85,3.44-0.05.47-.11,0.93-0.16,1.4a0.428,0.428,0,0,1,.22-0.06l0.04,0.01a0.449,0.449,0,0,1,.4.51l-0.25,2.45a0.447,0.447,0,0,1-.44.42l-0.04-.01a0.421,0.421,0,0,1-.28-0.14c-0.07.53-.13,1.06-0.19,1.59a1.945,1.945,0,0,1-.92,1.27c-0.08.58-.16,1.15-0.24,1.72a21.2,21.2,0,0,1,6.53,1.9,12.391,12.391,0,0,0-.85-16.15,11.478,11.478,0,0,0-16.6,0,12.391,12.391,0,0,0-.85,16.15,21.2,21.2,0,0,1,6.53-1.9c-0.08-.57-0.15-1.14-0.23-1.72a1.948,1.948,0,0,1-.94-1.27q-0.075-.795-0.18-1.59a0.378,0.378,0,0,1-.27.14l-0.05.01a0.454,0.454,0,0,1-.44-0.42l-0.25-2.45A0.456,0.456,0,0,1,1766.09,4154.31Z" transform="translate(-1677 -4069)"/>
</svg>
