<svg xmlns="http://www.w3.org/2000/svg" width="149.87" height="150" viewBox="0 0 149.87 150">
  <defs>
    <style>
      .cls-1 {
        fill: #52aa2a;
      }

      .cls-2 {
        fill: #499826;
      }

      .cls-2, .cls-3 {
        fill-rule: evenodd;
      }

      .cls-3 {
        fill: #fff;
      }
    </style>
  </defs>
  <circle id="Ellipse_4_copy_8" data-name="Ellipse 4 copy 8" class="cls-1" cx="74.935" cy="75" r="74.935"/>
  <path class="cls-2" d="M2065.93,4217.66L2027,4169v-49h25l12,12,12-12,47.14,47.14A75.043,75.043,0,0,1,2065.93,4217.66Z" transform="translate(-1976.91 -4069)"/>
  <path class="cls-3" d="M2074.84,4170h-46.69a2.136,2.136,0,0,1-2.14-2.14v-46.71a2.136,2.136,0,0,1,2.14-2.14h23.17a2.14,2.14,0,1,1,0,4.28h-21.03v42.43h42.41v-21.04a2.14,2.14,0,1,1,4.28,0v23.18A2.136,2.136,0,0,1,2074.84,4170Zm-14.91-30.91,7.51,0.01a2.14,2.14,0,1,1,0,4.28l-12.67-.01a2.142,2.142,0,0,1-2.14-2.14v-12.67a2.14,2.14,0,1,1,4.28,0v7.51l16.42-16.43a2.139,2.139,0,0,1,3.02,3.03Z" transform="translate(-1976.91 -4069)"/>
</svg>
