<svg xmlns="http://www.w3.org/2000/svg" width="149.87" height="150" viewBox="0 0 149.87 150">
  <defs>
    <style>
      .cls-1 {
        fill: #009cde;
      }

      .cls-2 {
        fill: #0082b9;
      }

      .cls-2, .cls-3 {
        fill-rule: evenodd;
      }

      .cls-3 {
        fill: #fff;
      }
    </style>
  </defs>
  <circle id="Ellipse_4_copy_7" data-name="Ellipse 4 copy 7" class="cls-1" cx="74.935" cy="75" r="74.935"/>
  <path class="cls-2" d="M2723.23,3896.23a75.119,75.119,0,0,1-53.83,50.63L2623,3895v-44h55Z" transform="translate(-2576.69 -3799)"/>
  <path class="cls-3" d="M2685.99,3887.43a15.51,15.51,0,0,1-28.51,8.53v0.24h-32.99a2.5,2.5,0,0,1-2.5-2.51v-41a2.5,2.5,0,0,1,2.5-2.51h7.37v-1.68a2.5,2.5,0,1,1,5,0v1.68h26.89v-1.68a2.5,2.5,0,1,1,5,0v1.68h7.09a2.5,2.5,0,0,1,2.5,2.51v21.34A15.577,15.577,0,0,1,2685.99,3887.43Zm-17.24-32.23v1.67a2.5,2.5,0,1,1-5,0v-1.67h-26.89v1.67a2.5,2.5,0,1,1-5,0v-1.67h-4.87v9.8h46.35v-9.8h-4.59Zm4.59,12.31h-46.35v23.67h28.42a15.4,15.4,0,0,1,3.12-13.71h-1.99v-4.87h4.85v2.21a15.354,15.354,0,0,1,9.07-2.96,15.122,15.122,0,0,1,2.88.28v-4.62Zm-2.88,6.85a13.07,13.07,0,1,0,13.03,13.07A13.066,13.066,0,0,0,2670.46,3874.36Zm8.48,10.09-9.06,11.08a2.483,2.483,0,0,1-1.84.92h-0.09a2.473,2.473,0,0,1-1.81-.78l-4.11-4.32a2.521,2.521,0,0,1,.09-3.55,2.491,2.491,0,0,1,3.54.09l2.15,2.26,7.26-8.89A2.508,2.508,0,1,1,2678.94,3884.45Zm-30.8-4.02h4.85v4.86h-4.85v-4.86Zm0-7.83h4.85v4.87h-4.85v-4.87Zm-8.4,7.83h4.85v4.86h-4.85v-4.86Zm0-7.83h4.85v4.87h-4.85v-4.87Zm-8.4,7.83h4.85v4.86h-4.85v-4.86Zm0-7.83h4.85v4.87h-4.85v-4.87Z" transform="translate(-2576.69 -3799)"/>
</svg>
