<svg xmlns="http://www.w3.org/2000/svg" width="149.91" height="150" viewBox="0 0 149.91 150">
  <defs>
    <style>
      .cls-1 {
        fill: #0a9832;
      }

      .cls-1, .cls-2, .cls-3 {
        fill-rule: evenodd;
      }

      .cls-2 {
        fill: #09852c;
      }

      .cls-3 {
        fill: #fff;
      }
    </style>
  </defs>
  <path id="Ellipse_4_copy_8" data-name="Ellipse 4 copy 8" class="cls-1" d="M2352.01,4069a75,75,0,1,1-74.96,75A74.98,74.98,0,0,1,2352.01,4069Z" transform="translate(-2277.06 -4069)"/>
  <path class="cls-2" d="M2365.01,4217.85L2323,4171v-53l21,31,4,2v-17h12l6,4,1-21,9,1,47.76,47.76A75.061,75.061,0,0,1,2365.01,4217.85Z" transform="translate(-2277.06 -4069)"/>
  <path class="cls-3" d="M2375.68,4172h-50.36a2.3,2.3,0,0,1-2.31-2.31V4119.3a2.305,2.305,0,0,1,4.61,0v48.09h48.06A2.305,2.305,0,1,1,2375.68,4172Zm-0.67-8.37h-8.51a2.132,2.132,0,0,1-2.13-2.13v-42.2a2.138,2.138,0,0,1,2.13-2.13h8.51a2.132,2.132,0,0,1,2.13,2.13v42.2A2.125,2.125,0,0,1,2375.01,4163.63Zm-2.12-42.2h-4.26v37.94h4.26v-37.94Zm-14.32,42.2h-8.51a2.132,2.132,0,0,1-2.13-2.13v-26.73a2.132,2.132,0,0,1,2.13-2.13h8.51a2.125,2.125,0,0,1,2.13,2.13v26.73A2.125,2.125,0,0,1,2358.57,4163.63Zm-2.13-26.73h-4.25v22.47h4.25V4136.9Zm-14.31,26.73h-8.51a2.123,2.123,0,0,1-2.12-2.13v-11.92a2.123,2.123,0,0,1,2.12-2.13h8.51a2.125,2.125,0,0,1,2.13,2.13v11.92A2.125,2.125,0,0,1,2342.13,4163.63Zm-2.13-11.92h-4.25v7.66H2340v-7.66Z" transform="translate(-2277.06 -4069)"/>
</svg>
