<svg xmlns="http://www.w3.org/2000/svg" width="149.87" height="150" viewBox="0 0 149.87 150">
  <defs>
    <style>
      .cls-1 {
        fill: #008933;
      }

      .cls-2 {
        fill: #00712a;
      }

      .cls-2, .cls-3 {
        fill-rule: evenodd;
      }

      .cls-3 {
        fill: #fff;
      }
    </style>
  </defs>
  <circle id="Ellipse_4_copy_8" data-name="Ellipse 4 copy 8" class="cls-1" cx="74.935" cy="75" r="74.935"/>
  <path class="cls-2" d="M2719.6,4175.6a75.214,75.214,0,0,1-40.17,38.05L2625,4154s-6.66-52.67,38-35Z" transform="translate(-2576.69 -4069)"/>
  <path class="cls-3" d="M2681.17,4174.24a2.7,2.7,0,0,1-3.78,0l-13.58-13.37a26.75,26.75,0,0,1-16.24,5.48,26.2,26.2,0,1,1,26.62-26.19,25.843,25.843,0,0,1-6.5,17.1l13.48,13.27A2.6,2.6,0,0,1,2681.17,4174.24Zm-33.59-55.02a20.943,20.943,0,1,0,21.27,20.94A21.136,21.136,0,0,0,2647.58,4119.22Zm-14.97,20.93h-2.67a17.534,17.534,0,0,1,17.64-17.36v2.63A14.879,14.879,0,0,0,2632.61,4140.15Z" transform="translate(-2576.69 -4069)"/>
</svg>
