<svg xmlns="http://www.w3.org/2000/svg" width="149.91" height="150" viewBox="0 0 149.91 150">
  <defs>
    <style>
      .cls-1 {
        fill: #0080c5;
      }

      .cls-1, .cls-2, .cls-3 {
        fill-rule: evenodd;
      }

      .cls-2 {
        fill: #0069a1;
      }

      .cls-3 {
        fill: #fff;
      }
    </style>
  </defs>
  <path id="Ellipse_4_copy_7" data-name="Ellipse 4 copy 7" class="cls-1" d="M2352.01,3799a75,75,0,1,1-74.96,75A74.98,74.98,0,0,1,2352.01,3799Z" transform="translate(-2277.06 -3799)"/>
  <path class="cls-2" d="M2423.53,3896.53a75.1,75.1,0,0,1-57.64,51.17L2326,3900v-51h10l9,6,34-3Z" transform="translate(-2277.06 -3799)"/>
  <path class="cls-3" d="M2377.66,3876.78h-31.53a2.276,2.276,0,1,1,0-4.55h31.53A2.276,2.276,0,1,1,2377.66,3876.78Zm0-20.45h-31.53a2.271,2.271,0,1,1,0-4.54h31.53A2.271,2.271,0,1,1,2377.66,3856.33Zm-42.54,44.68h-7.78a2.312,2.312,0,0,1-2.34-2.28v-7.57a2.31,2.31,0,0,1,2.34-2.27h7.78a2.3,2.3,0,0,1,2.34,2.27v7.57A2.305,2.305,0,0,1,2335.12,3901.01Zm-2.33-7.58h-3.12v3.03h3.12v-3.03Zm2.33-12.87h-7.78a2.3,2.3,0,0,1-2.34-2.27v-7.57a2.3,2.3,0,0,1,2.34-2.27h7.78a2.3,2.3,0,0,1,2.34,2.27v7.57A2.3,2.3,0,0,1,2335.12,3880.56Zm-2.33-7.57h-3.12v3.03h3.12v-3.03Zm2.33-12.87h-7.78a2.31,2.31,0,0,1-2.34-2.27v-7.58a2.31,2.31,0,0,1,2.34-2.27h7.78a2.3,2.3,0,0,1,2.34,2.27v7.58A2.3,2.3,0,0,1,2335.12,3860.12Zm-2.33-7.57h-3.12v3.02h3.12v-3.02Zm13.34,40.13h31.53a2.271,2.271,0,1,1,0,4.54h-31.53A2.271,2.271,0,1,1,2346.13,3892.68Z" transform="translate(-2277.06 -3799)"/>
</svg>
