<svg xmlns="http://www.w3.org/2000/svg" width="36" height="36" viewBox="0 0 36 36">
  <defs>
    <style>
      .cls-1 {
        fill: #fff;
        fill-rule: evenodd;
      }
    </style>
  </defs>
  <path class="cls-1" d="M2347.97,6209.91h-15.96v-3.07h15.96a3.046,3.046,0,0,0,3.01-3.07v-23.55a3.048,3.048,0,0,0-3.01-3.08h-15.96v-3.07h15.96a6.093,6.093,0,0,1,6.02,6.15v23.55A6.085,6.085,0,0,1,2347.97,6209.91Zm-13.7-22.97a2.5,2.5,0,1,1-2.45,2.49A2.461,2.461,0,0,1,2334.27,6186.94Zm-7.07,23.07a11.977,11.977,0,0,1-3.41-.5,12.632,12.632,0,0,1-1.64-.61l-0.5-.22-0.24-.5a37.35,37.35,0,0,1-3.41-16.08v-0.17a37.357,37.357,0,0,1,3.41-16.11l0.24-.5,0.51-.22a12.958,12.958,0,0,1,1.64-.61,11.841,11.841,0,0,1,5.55-.3l1.25,0.22v11.93h-3.33v11.33h3.33v11.92l-1.25.22A12.031,12.031,0,0,1,2327.2,6210.01Zm0.39-9.27h-0.32a3.046,3.046,0,0,1-3.01-3.07v-11.33a3.048,3.048,0,0,1,3.01-3.08h0.32v-6.19a9.293,9.293,0,0,0-2.96.37,7.971,7.971,0,0,0-.77.27,34.509,34.509,0,0,0-2.85,14.09l0.03,0.12-0.03.18a34.612,34.612,0,0,0,2.85,14.2,7.751,7.751,0,0,0,.77.26,8.952,8.952,0,0,0,2.96.37v-6.19Zm6.68-.75a2.5,2.5,0,1,1-2.45,2.5A2.469,2.469,0,0,1,2334.27,6199.99Zm0-6.52a2.5,2.5,0,1,1-2.45,2.49A2.461,2.461,0,0,1,2334.27,6193.47Zm12.79-6.53a2.5,2.5,0,1,1-2.44,2.49A2.469,2.469,0,0,1,2347.06,6186.94Zm0,13.05a2.5,2.5,0,1,1-2.44,2.5A2.478,2.478,0,0,1,2347.06,6199.99Zm0-6.52a2.5,2.5,0,1,1-2.44,2.49A2.469,2.469,0,0,1,2347.06,6193.47Zm-14.96-14.31h17.32v5.86H2332.1v-5.86Zm1.51,4.32h14.3v-2.78h-14.3v2.78Zm7.05,3.46a2.5,2.5,0,1,1-2.44,2.49A2.469,2.469,0,0,1,2340.66,6186.94Zm0,13.05a2.5,2.5,0,1,1-2.44,2.5A2.478,2.478,0,0,1,2340.66,6199.99Zm0-6.52a2.5,2.5,0,1,1-2.44,2.49A2.469,2.469,0,0,1,2340.66,6193.47Z" transform="translate(-2318 -6174)"/>
</svg>
