<svg xmlns="http://www.w3.org/2000/svg" width="50" height="50" viewBox="0 0 50 50">
  <defs>
    <style>
      .cls-1 {
        fill: #fff;
        fill-rule: evenodd;
      }
    </style>
  </defs>
  <path class="cls-1" d="M2090.6,1517.52h-19.7l8.64,8.83a2.209,2.209,0,0,1-.01,3.09,2.107,2.107,0,0,1-1.51.64,2.129,2.129,0,0,1-1.53-.65l-6.59-6.73v1.92a2.15,2.15,0,1,1-4.3,0v-1.92l-6.59,6.73a2.113,2.113,0,0,1-3.04.01,2.209,2.209,0,0,1-.01-3.09l8.65-8.83H2044.9a2.166,2.166,0,0,1-2.15-2.18v-33.06a2.168,2.168,0,0,1,2.15-2.19h45.7a2.177,2.177,0,0,1,2.16,2.19v33.06A2.175,2.175,0,0,1,2090.6,1517.52Zm-2.15-33.06h-41.4v3.46h41.4v-3.46Zm0,5.64h-41.4v23.05h41.4V1490.1Zm-32.44,9.83a2.168,2.168,0,0,1,2.15,2.19v6.55a2.15,2.15,0,1,1-4.3,0v-6.55A2.168,2.168,0,0,1,2056.01,1499.93Zm7.83-7.1a2.168,2.168,0,0,1,2.15,2.19v13.65a2.15,2.15,0,1,1-4.3,0v-13.65A2.168,2.168,0,0,1,2063.84,1492.83Zm7.83,9.29a2.166,2.166,0,0,1,2.15,2.18v4.37a2.155,2.155,0,1,1-4.31,0v-4.37A2.168,2.168,0,0,1,2071.67,1502.12Zm7.82-6.56a2.168,2.168,0,0,1,2.15,2.19v10.92a2.15,2.15,0,1,1-4.3,0v-10.92A2.168,2.168,0,0,1,2079.49,1495.56Z" transform="translate(-2042.75 -1480.09)"/>
</svg>
