<svg xmlns="http://www.w3.org/2000/svg" width="50" height="50" viewBox="0 0 50 50">
  <defs>
    <style>
      .cls-1 {
        fill: #fff;
        fill-rule: evenodd;
      }
    </style>
  </defs>
  <path class="cls-1" d="M2520,1527a25,25,0,1,1,25-25A25.035,25.035,0,0,1,2520,1527Zm2.17-45.53v6.08h-4.34v-6.08a20.693,20.693,0,0,0-18.37,18.36h6.1v4.34h-6.1a20.693,20.693,0,0,0,18.37,18.36v-6.08h4.34v6.08a20.674,20.674,0,0,0,18.36-18.36h-6.08v-4.34h6.08A20.674,20.674,0,0,0,2522.17,1481.47Zm-2.17,22.98a2.45,2.45,0,1,1,2.45-2.45A2.454,2.454,0,0,1,2520,1504.45Z" transform="translate(-2495 -1477)"/>
</svg>
