<svg xmlns="http://www.w3.org/2000/svg" width="37" height="37" viewBox="0 0 37 37">
  <defs>
    <style>
      .cls-1 {
        fill: #fff;
        fill-rule: evenodd;
      }
    </style>
  </defs>
  <path class="cls-1" d="M2452.35,3000.57H2454V3036h-1.65v-35.43Zm-17.87,2.76V3036h15.82v-37h-15.82v4.33Zm12.04-1.57h1.65v1.81h-1.65v-1.81Zm0,4.25h1.65v1.81h-1.65v-1.81Zm0,4.25h1.65v1.81h-1.65v-1.81Zm0,4.25h1.65v1.81h-1.65v-1.81Zm0,4.33h1.65v1.81h-1.65v-1.81Zm0,4.25h1.65v1.81h-1.65v-1.81Zm0,4.25h1.65v1.81h-1.65v-1.81Zm0,4.25h1.65v1.81h-1.65v-1.81Zm-4.96-29.83h1.65v1.81h-1.65v-1.81Zm0,4.25h1.65v1.81h-1.65v-1.81Zm0,4.25h1.65v1.81h-1.65v-1.81Zm0,4.25h1.65v1.81h-1.65v-1.81Zm0,4.33h1.65v1.81h-1.65v-1.81Zm0,4.25h1.65v1.81h-1.65v-1.81Zm0,4.25h1.65v1.81h-1.65v-1.81Zm0,4.25h1.65v1.81h-1.65v-1.81Zm-5.04-29.83h1.66v1.81h-1.66v-1.81Zm0,4.25h1.66v1.81h-1.66v-1.81Zm0,4.25h1.66v1.81h-1.66v-1.81Zm0,4.25h1.66v1.81h-1.66v-1.81Zm0,4.33h1.66v1.81h-1.66v-1.81Zm0,4.25h1.66v1.81h-1.66v-1.81Zm0,4.25h1.66v1.81h-1.66v-1.81Zm0,4.25h1.66v1.81h-1.66v-1.81ZM2417,3036h15.82v-29.52L2417,3017.5V3036Zm12.04-21.49h1.66v1.81h-1.66v-1.81Zm0,4.33h1.66v1.81h-1.66v-1.81Zm0,4.25h1.66v1.81h-1.66v-1.81Zm0,4.25h1.66v1.81h-1.66v-1.81Zm0,4.25h1.66v1.81h-1.66v-1.81Zm-4.96-12.75h1.66v1.81h-1.66v-1.81Zm0,4.25h1.66v1.81h-1.66v-1.81Zm0,4.25h1.66v1.81h-1.66v-1.81Zm0,4.25h1.66v1.81h-1.66v-1.81Zm-5.03-8.5h1.65v1.81h-1.65v-1.81Zm0,4.25h1.65v1.81h-1.65v-1.81Zm0,4.25h1.65v1.81h-1.65v-1.81Z" transform="translate(-2417 -2999)"/>
</svg>
