<svg xmlns="http://www.w3.org/2000/svg" width="50" height="50" viewBox="0 0 50 50">
  <defs>
    <style>
      .cls-1 {
        fill: #fff;
        fill-rule: evenodd;
      }
    </style>
  </defs>
  <path class="cls-1" d="M1696.76,1526.93h-45.79a2.108,2.108,0,0,1-2.1-2.11v-45.79a2.1,2.1,0,0,1,2.1-2.1h45.79a2.1,2.1,0,0,1,2.1,2.1v45.79A2.108,2.108,0,0,1,1696.76,1526.93Zm-2.11-45.79h-41.58v9.1h41.58v-9.1Zm0,11.2h-41.58v30.38h41.58v-30.38Zm-35.16,6.34h14.38a1.05,1.05,0,1,1,0,2.1h-14.38A1.05,1.05,0,0,1,1659.49,1498.68Zm0,6.66h14.38a1.05,1.05,0,0,1,0,2.1h-14.38A1.05,1.05,0,0,1,1659.49,1505.34Zm0,6.66h14.38a1.05,1.05,0,1,1,0,2.1h-14.38A1.05,1.05,0,0,1,1659.49,1512Zm19.63-13.32h9.11a1.052,1.052,0,0,1,1.06,1.05v13.32a1.052,1.052,0,0,1-1.06,1.05h-9.11a1.05,1.05,0,0,1-1.05-1.05v-13.32A1.05,1.05,0,0,1,1679.12,1498.68Zm1.06,13.32h7v-11.22h-7V1512Zm-21.76-28.9a2.65,2.65,0,1,1-2.65,2.66A2.65,2.65,0,0,1,1658.42,1483.1Zm7.18,0a2.65,2.65,0,1,1-2.65,2.66A2.657,2.657,0,0,1,1665.6,1483.1Zm7.18,0a2.65,2.65,0,1,1-2.65,2.66A2.657,2.657,0,0,1,1672.78,1483.1Z" transform="translate(-1648.88 -1476.94)"/>
</svg>
