<svg xmlns="http://www.w3.org/2000/svg" width="32" height="44.38" viewBox="0 0 32 44.38">
  <defs>
    <style>
      .cls-1 {
        fill: #fff;
        fill-rule: evenodd;
      }
    </style>
  </defs>
  <path class="cls-1" d="M1635.52,3037.28a4.2,4.2,0,0,0,2.92-1.31l1.4,12.53-3.4-2.1-2.71,2.78-1.26-11.24-1.17,11.23-2.78-2.77-3.34,2.12,1.38-13.19a2.909,2.909,0,0,0,.31-0.04c0.04,0.01.08,0.02,0.13,0.03a4.438,4.438,0,0,0,3.48,1.97,3.838,3.838,0,0,0,2.33-.83,0.617,0.617,0,0,1,.38,0A3.826,3.826,0,0,0,1635.52,3037.28Zm12.63-16.14a3.391,3.391,0,0,1,.82,2.61,4.2,4.2,0,0,1-1.89,2.83v0.03a0.405,0.405,0,0,1-.05.09,0.09,0.09,0,0,1,.01.05,0.245,0.245,0,0,1-.06.16,3.75,3.75,0,0,1-.44,2.82,4.156,4.156,0,0,1-2.64,1.79,0.2,0.2,0,0,1-.12.1,0.47,0.47,0,0,1-.06.09c-0.01.01-.03,0.02-0.04,0.03a3.838,3.838,0,0,1-3.71,3.19,3.942,3.942,0,0,1-.9-0.1,0.245,0.245,0,0,1-.16.06h-0.05a0.21,0.21,0,0,1-.11.04,4.079,4.079,0,0,1-3.23,1.92,3.51,3.51,0,0,1-2.21-.84,0.2,0.2,0,0,1-.09.02,0.243,0.243,0,0,0-.44,0,0.3,0.3,0,0,1-.1-0.02,3.464,3.464,0,0,1-2.2.84,4.079,4.079,0,0,1-3.23-1.92,0.21,0.21,0,0,1-.11-0.04h-0.05a0.245,0.245,0,0,1-.16-0.06,3.942,3.942,0,0,1-.9.1,3.838,3.838,0,0,1-3.71-3.19c-0.01-.01-0.03-0.02-0.04-0.03a0.236,0.236,0,0,1-.06-0.09,0.2,0.2,0,0,1-.12-0.1,4.156,4.156,0,0,1-2.64-1.79,3.75,3.75,0,0,1-.44-2.82,0.314,0.314,0,0,1-.06-0.16,0.09,0.09,0,0,1,.01-0.05,0.405,0.405,0,0,1-.05-0.09v-0.03a4.2,4.2,0,0,1-1.89-2.83,3.382,3.382,0,0,1,.81-2.61,0.2,0.2,0,0,1-.01-0.13,0.214,0.214,0,0,1,.12-0.18,0.242,0.242,0,0,1-.12-0.18,0.229,0.229,0,0,1,.01-0.14,3.359,3.359,0,0,1-.81-2.61,4.222,4.222,0,0,1,1.89-2.83v-0.02a0.193,0.193,0,0,1,.05-0.09,0.127,0.127,0,0,1-.01-0.06,0.22,0.22,0,0,1,.06-0.15,3.75,3.75,0,0,1,.44-2.82,4.169,4.169,0,0,1,2.64-1.8,0.863,0.863,0,0,0,.22-0.22,3.847,3.847,0,0,1,3.71-3.19,4.6,4.6,0,0,1,.9.1,0.3,0.3,0,0,1,.16-0.05h0.05a0.222,0.222,0,0,1,.11-0.05,4.066,4.066,0,0,1,3.23-1.91,3.464,3.464,0,0,1,2.2.84,0.164,0.164,0,0,1,.1-0.02,0.251,0.251,0,0,0,.44,0,0.122,0.122,0,0,1,.09.02,3.49,3.49,0,0,1,2.21-.84,4.08,4.08,0,0,1,3.23,1.91,0.222,0.222,0,0,1,.11.05h0.05a0.3,0.3,0,0,1,.16.05,4.6,4.6,0,0,1,.9-0.1,3.847,3.847,0,0,1,3.71,3.19,0.236,0.236,0,0,1,.08.09c0.01,0.01.01,0.02,0.02,0.03a0.294,0.294,0,0,1,.12.1,4.169,4.169,0,0,1,2.64,1.8,3.8,3.8,0,0,1,.44,2.82,0.269,0.269,0,0,1,.05.15v0.06a0.193,0.193,0,0,1,.05.09v0.02a4.257,4.257,0,0,1,1.89,2.83,3.406,3.406,0,0,1-.82,2.61,0.364,0.364,0,0,1,.02.14,0.274,0.274,0,0,1-.12.18,0.237,0.237,0,0,1,.12.18A0.218,0.218,0,0,1,1648.15,3021.14Zm-6.36-.31a8.79,8.79,0,1,0-8.79,8.81A8.794,8.794,0,0,0,1641.79,3020.83Z" transform="translate(-1617 -3004.81)"/>
</svg>
