<svg xmlns="http://www.w3.org/2000/svg" width="40" height="40" viewBox="0 0 40 40">
  <defs>
    <style>
      .cls-1 {
        fill: #fff;
        fill-rule: evenodd;
      }
    </style>
  </defs>
  <path class="cls-1" d="M2055.52,3016.56h-35.04a0.885,0.885,0,1,0,0,1.77h35.04A0.885,0.885,0,1,0,2055.52,3016.56Zm0,18.66h-35.04a0.89,0.89,0,0,0,0,1.78h35.04A0.89,0.89,0,1,0,2055.52,3035.22Zm-14.84-16h-5.37a0.89,0.89,0,1,0,0,1.78v11.56a0.885,0.885,0,0,0,0,1.77h5.39a0.885,0.885,0,1,0,0-1.77V3021a0.89,0.89,0,0,0,0-1.78h-0.02Zm12.57,0h-5.37a0.89,0.89,0,1,0,0,1.78v11.56a0.885,0.885,0,0,0,0,1.77h5.39a0.885,0.885,0,1,0,0-1.77V3021a0.89,0.89,0,0,0,0-1.78h-0.02Zm-30.96,13.34a0.885,0.885,0,1,0,0,1.77h5.4a0.9,0.9,0,0,0,.87-0.89,0.886,0.886,0,0,0-.87-0.88V3021a0.89,0.89,0,0,0,0-1.78h-5.39a0.89,0.89,0,1,0,0,1.78v11.56h-0.01Zm15.6-26.13a0.3,0.3,0,0,1,.23,0l6.17,2.58V3009a6.236,6.236,0,0,0-4.52-5.97,2.13,2.13,0,0,0,.03-0.25,1.789,1.789,0,0,0-1.35-1.72v-2.28a14.82,14.82,0,0,0,1.35.89,4.726,4.726,0,0,0,1.79,0l0.45-1.34h-1.79c-0.68,0-1.8-1.33-1.8-1.33h-0.9v4.06a1.789,1.789,0,0,0-1.35,1.72,2.13,2.13,0,0,0,.03.25,6.236,6.236,0,0,0-4.52,5.97v0.01Zm19.93,8.87-19.7-8.23a0.3,0.3,0,0,0-.23,0l-19.71,8.23a0.291,0.291,0,0,0,.12.56h39.41A0.29,0.29,0,0,0,2057.82,3015.3Zm-19.82-.97a2.22,2.22,0,1,1,2.25-2.22A2.234,2.234,0,0,1,2038,3014.33Z" transform="translate(-2018 -2997)"/>
</svg>
