<svg xmlns="http://www.w3.org/2000/svg" width="35.03" height="26" viewBox="0 0 35.03 26">
  <defs>
    <style>
      .cls-1 {
        fill: #fff;
        fill-rule: evenodd;
      }
    </style>
  </defs>
  <path class="cls-1" d="M2349.41,6318.99h-27.82a3.652,3.652,0,0,1-3.61-3.69v-18.6a3.658,3.658,0,0,1,3.61-3.69h27.82a3.656,3.656,0,0,1,3.6,3.69v18.6A3.65,3.65,0,0,1,2349.41,6318.99Zm-13.91-9.64,14.3-13.04a0.561,0.561,0,0,0-.39-0.17h-27.82a0.561,0.561,0,0,0-.39.17Zm14.45-11.08-8.48,7.73,8.48,7.74v-15.47Zm-28.36,17.59h27.82a0.522,0.522,0,0,0,.39-0.17l-9.48-8.64-4.31,3.93a0.782,0.782,0,0,1-.51.2,0.763,0.763,0,0,1-.51-0.2l-4.31-3.93-9.48,8.64A0.561,0.561,0,0,0,2321.59,6315.86Zm7.94-9.86-8.49-7.73v15.47Z" transform="translate(-2317.97 -6293)"/>
</svg>
