<?xml version="1.0" encoding="utf-8"?>
<!-- Generator: Adobe Illustrator 20.1.0, SVG Export Plug-In . SVG Version: 6.00 Build 0)  -->
<svg version="1.1" id="Camada_1" xmlns="http://www.w3.org/2000/svg" xmlns:xlink="http://www.w3.org/1999/xlink" x="0px" y="0px"
	 viewBox="0 0 173.8 44.4" style="enable-background:new 0 0 173.8 44.4;" xml:space="preserve">
<style type="text/css">
	.st0{fill:#FFFFFF;}
</style>
<g>
	<circle class="st0" cx="19" cy="20.8" r="6"/>
	<rect x="169.9" y="1.5" class="st0" width="1.8" height="24.6"/>
	<path class="st0" d="M150.1,24.8c-0.8,0-1.3-0.2-1.6-0.5c-0.3-0.3-0.4-1.1-0.4-2.2V11.3h4.3V9.8H148V4.6h-0.4l-1.4,1.6v3.7h-3.5
		v1.5h3.5V22c0,1.6,0.3,2.7,0.8,3.4c0.5,0.6,1.5,1,2.8,1c0.5,0,1-0.1,1.5-0.2c0.5-0.1,1-0.3,1.5-0.5v-1.8c-0.5,0.3-1,0.5-1.5,0.6
		C150.9,24.7,150.5,24.8,150.1,24.8z"/>
	<path class="st0" d="M127.8,10c-0.6,0.1-1.2,0.3-1.6,0.6c-0.9,0.6-1.7,1.3-2.2,2.1c-0.5,0.9-0.8,1.8-0.8,2.8c0,1.3,0.3,2.3,1,3.2
		c0.7,0.9,1.7,1.6,3,2.1c-0.9,0.2-1.6,0.6-2.1,1.1s-0.7,1-0.7,1.6c0,0.6,0.2,1,0.6,1.4c0.4,0.4,0.9,0.7,1.6,0.8
		c-1.4,0.2-2.4,0.6-3.2,1.3c-0.8,0.7-1.2,1.6-1.2,2.6c0,1.4,0.6,2.5,1.8,3.2c1.2,0.7,2.9,1.1,5.2,1.1c2.5,0,4.4-0.4,5.6-1.2
		c1.2-0.8,1.8-1.9,1.8-3.5c0-1.4-0.5-2.4-1.4-3c-0.9-0.6-2.7-1.1-5.2-1.3h-0.2c-2.6-0.2-3.9-0.8-3.9-1.6c0-0.9,0.9-1.5,2.8-2
		c0.5-0.1,0.9-0.2,1.2-0.3c1.8-0.5,3.1-1.2,4-2.2c0.9-0.9,1.3-2.1,1.3-3.6c0-0.8-0.2-1.6-0.5-2.3c-0.3-0.7-0.8-1.3-1.5-1.9h3.5V9.8
		h-6C129.4,9.8,128.4,9.9,127.8,10z M133.5,27.5c0.9,0.5,1.3,1.2,1.3,2.1c0,1-0.5,1.8-1.4,2.3c-1,0.5-2.4,0.8-4.2,0.8
		c-1.7,0-3-0.2-3.9-0.7c-0.9-0.5-1.4-1.2-1.4-2.1c0-1,0.4-1.8,1.3-2.3s2.3-0.8,4.1-0.8C131.3,26.8,132.6,27.1,133.5,27.5z
		 M133.4,15.6c0,1.2-0.4,2.2-1.2,3s-1.8,1.2-3,1.2s-2.2-0.4-3-1.2s-1.2-1.8-1.2-3s0.4-2.2,1.2-3s1.8-1.2,3-1.2s2.2,0.4,3,1.2
		S133.4,14.4,133.4,15.6z"/>
	<path class="st0" d="M167.1,23.6c-0.7,0.6-1.2,0.9-1.5,0.9c-0.2,0-0.3-0.1-0.4-0.3s-0.1-0.4-0.1-0.8V15c0-1.9-0.4-3.3-1.2-4.2
		c-0.8-0.9-2.2-1.3-4-1.3c-0.8,0-1.6,0.1-2.5,0.4c-0.8,0.3-1.7,0.7-2.6,1.4V13c0.9-0.7,1.8-1.2,2.6-1.5c0.8-0.3,1.6-0.5,2.4-0.5
		c1.3,0,2.2,0.3,2.8,0.8c0.6,0.6,0.9,1.4,0.9,2.7v1.7c-3,0.1-5.4,0.7-7,1.7c-1.6,1-2.4,2.4-2.4,4.2c0,1.2,0.4,2.2,1.2,3
		c0.8,0.8,1.9,1.2,3.2,1.2c0.9,0,1.7-0.1,2.5-0.4s1.6-0.8,2.5-1.5c0,0.7,0.2,1.2,0.4,1.5c0.2,0.3,0.6,0.4,1.1,0.4
		c0.3,0,0.7-0.1,1.2-0.4c0.4-0.2,0.9-0.6,1.5-1.1v-1.6C167.3,23.3,167.2,23.4,167.1,23.6z M160.8,24.4c-0.7,0.3-1.4,0.5-2.1,0.5
		c-1,0-1.8-0.2-2.3-0.7c-0.6-0.5-0.8-1.1-0.8-2c0-1.3,0.7-2.4,2-3.2c1.4-0.8,3.2-1.2,5.5-1.3v5.1h0.1
		C162.3,23.5,161.6,24,160.8,24.4z"/>
	<rect x="139.2" y="9.8" class="st0" width="1.8" height="16.2"/>
	<rect x="139.2" y="1.5" class="st0" width="1.8" height="3"/>
	<rect x="117.7" y="1.5" class="st0" width="1.8" height="3"/>
	<rect x="117.7" y="9.8" class="st0" width="1.8" height="16.2"/>
	<path class="st0" d="M111.3,11c-0.7-0.5-1.4-0.9-2.1-1.1s-1.6-0.4-2.5-0.4c-2.4,0-4.3,0.8-5.7,2.3c-1.5,1.6-2.2,3.6-2.2,6.1
		s0.7,4.5,2.2,6.1c1.5,1.6,3.4,2.3,5.7,2.3c0.9,0,1.7-0.1,2.5-0.4c0.7-0.2,1.5-0.6,2.1-1.1V26h1.8V1.5h-1.8V11z M111.3,22.9
		c-0.6,0.6-1.2,1.1-1.9,1.4c-0.7,0.3-1.5,0.4-2.4,0.4c-1.8,0-3.3-0.6-4.4-1.9c-1.1-1.3-1.7-2.9-1.7-4.9s0.6-3.7,1.7-4.9
		c1.1-1.3,2.6-1.9,4.4-1.9c0.9,0,1.7,0.1,2.4,0.4c0.7,0.3,1.3,0.8,1.9,1.4V22.9z"/>
	<path class="st0" d="M73.8,22.8v-8.7c0-4-3.3-4.7-6.4-4.7c-3.8,0-7,1.5-7.2,5.7H63c0.1-2.5,1.9-3.2,4.2-3.2c1.7,0,3.8,0.4,3.8,2.8
		c0,2.1-2.7,1.9-5.7,2.5c-2.9,0.5-5.7,1.4-5.7,5.2c0,3.4,2.5,4.8,5.6,4.8c2.4,0,4.4-0.8,6-2.6c0,1.8,0.9,2.6,2.4,2.6
		c0.8,0,1.5-0.2,2-0.5v-2.2c-0.3,0.1-0.6,0.2-0.9,0.2C73.8,24.7,73.8,24.1,73.8,22.8z M71,20.9c0,1.6-1.5,3.8-5.2,3.8
		c-1.7,0-3.3-0.7-3.3-2.5c0-4.2,6.3-2.6,8.5-4.2V20.9z"/>
	<path class="st0" d="M86.5,9.4c-2.4,0-4.5,0.8-5.4,2.7H81V9.8h-2.8v23.4H81v-8.8h0.1c1.2,2,3.8,2.7,5.5,2.7c5.2,0,7.7-4,7.7-8.8
		C94.3,13.6,91.7,9.4,86.5,9.4z M86.2,24.7c-3.8,0-5.3-3.1-5.3-6.4c0-3.1,1.4-6.4,5.2-6.4c3.6,0,5.2,3.1,5.2,6.3
		C91.3,21.5,90,24.7,86.2,24.7z"/>
	<path class="st0" d="M49.4,9.4c-2.4,0-4.5,0.8-5.4,2.7h-0.1V9.8h-2.8v23.4h2.8v-8.8H44c1.2,2,3.8,2.7,5.5,2.7c5.2,0,7.7-4,7.7-8.8
		C57.2,13.6,54.6,9.4,49.4,9.4z M49.2,24.7c-3.8,0-5.3-3.1-5.3-6.4c0-3.1,1.4-6.4,5.2-6.4c3.6,0,5.2,3.1,5.2,6.3
		C54.3,21.5,53,24.7,49.2,24.7z"/>
	<path class="st0" d="M35,14.4c-0.8-2-2.1-3.8-3.7-5.5c-1.7-1.7-3.6-2.9-5.6-3.8l-1.5,3.7c1.6,0.6,3,1.6,4.3,2.9
		c1.2,1.2,2.1,2.7,2.8,4.3c0.6,1.6,1,3.3,1,5.1s-0.4,3.5-1,5.1c-0.6,1.6-1.6,3-2.9,4.3c-1.2,1.2-2.6,2.1-4.1,2.8l-0.1-0.2
		c-1.6,0.6-3.3,1-5.1,1c-1.9,0.2-3.6-0.2-5.1-0.9c-1.6-0.6-3-1.6-4.3-2.9C8.4,29,7.5,27.6,6.8,26c-0.6-1.6-1-3.3-1-5.1
		s0.4-3.5,1-5.1c0.6-1.6,1.6-3,2.9-4.3c1.3-1.3,2.7-2.2,4.3-2.9c1.6-0.6,3.3-1,5.1-1c1.8,0,3.5,0.4,5.1,1l1.5-3.7
		c-2-0.8-4.3-1.3-6.6-1.3c-2.3,0-4.6,0.5-6.6,1.3S8.6,7,6.9,8.7c-1.7,1.7-2.9,3.6-3.8,5.6c-0.8,2-1.3,4.3-1.3,6.6s0.5,4.6,1.3,6.6
		c0.8,2,2.1,4,3.8,5.6c1.7,1.7,3.6,2.9,5.6,3.7l6.6,6.7l6.4-6.5l0.1,0.1c2-0.8,4-2.1,5.6-3.7c1.7-1.7,2.9-3.6,3.7-5.6
		c0.9-2.2,1.4-4.4,1.4-6.8C36.3,18.7,35.8,16.4,35,14.4L35,14.4z"/>
</g>
</svg>
