<?xml version="1.0" encoding="utf-8"?>
<!-- Generator: Adobe Illustrator 20.1.0, SVG Export Plug-In . SVG Version: 6.00 Build 0)  -->
<svg version="1.1" id="Camada_1" xmlns="http://www.w3.org/2000/svg" xmlns:xlink="http://www.w3.org/1999/xlink" x="0px" y="0px"
	 viewBox="0 0 173.8 44.4" style="enable-background:new 0 0 173.8 44.4;" xml:space="preserve">
<style type="text/css">
	.st0{fill-rule:evenodd;clip-rule:evenodd;fill:#3E883D;}
	.st1{fill:#4E4D49;}
	.st2{fill-rule:evenodd;clip-rule:evenodd;fill:#A3BD31;}
	.st3{fill-rule:evenodd;clip-rule:evenodd;fill:#74A93A;}
	.st4{fill-rule:evenodd;clip-rule:evenodd;fill:#52983E;}
	.st5{fill-rule:evenodd;clip-rule:evenodd;fill:#004774;}
	.st6{fill-rule:evenodd;clip-rule:evenodd;fill:#00518E;}
	.st7{fill-rule:evenodd;clip-rule:evenodd;fill:#007EC2;}
	.st8{fill-rule:evenodd;clip-rule:evenodd;fill:#009BDB;}
</style>
<g>
	<path class="st0" d="M19,14.8c3.3,0,6,2.7,6,6s-2.7,6-6,6c-3.3,0-6-2.7-6-6S15.7,14.8,19,14.8L19,14.8z"/>
	<path class="st1" d="M111.3,22.9v-10c-0.6-0.6-1.2-1.1-1.9-1.4c-0.7-0.3-1.5-0.4-2.4-0.4c-1.8,0-3.3,0.6-4.4,1.9
		c-1.1,1.3-1.7,2.9-1.7,4.9c0,2,0.6,3.7,1.7,4.9c1.1,1.3,2.6,1.9,4.4,1.9c0.9,0,1.7-0.1,2.4-0.4C110.1,24,110.7,23.5,111.3,22.9
		L111.3,22.9z M111.3,24.9c-0.7,0.5-1.4,0.9-2.1,1.1c-0.7,0.2-1.6,0.4-2.5,0.4c-2.4,0-4.3-0.8-5.7-2.3c-1.5-1.6-2.2-3.6-2.2-6.1
		c0-2.5,0.7-4.5,2.2-6.1c1.5-1.6,3.4-2.3,5.7-2.3c0.9,0,1.7,0.1,2.5,0.4c0.7,0.2,1.5,0.6,2.1,1.1V1.5h1.8V26h-1.8V24.9L111.3,24.9z
		 M117.7,4.5v-3h1.8v3H117.7L117.7,4.5z M117.7,26V9.8h1.8V26H117.7L117.7,26z M129.4,26.8c-1.9,0-3.2,0.3-4.1,0.8
		c-0.9,0.5-1.3,1.3-1.3,2.3c0,0.9,0.5,1.6,1.4,2.1c0.9,0.5,2.2,0.7,3.9,0.7c1.9,0,3.3-0.3,4.2-0.8c1-0.5,1.4-1.3,1.4-2.3
		c0-1-0.4-1.7-1.3-2.1C132.6,27.1,131.3,26.8,129.4,26.8L129.4,26.8z M125,15.6c0,1.2,0.4,2.1,1.2,3c0.8,0.8,1.8,1.2,3,1.2
		c1.2,0,2.2-0.4,3-1.2c0.8-0.8,1.2-1.8,1.2-3c0-1.2-0.4-2.2-1.2-3c-0.8-0.8-1.8-1.2-3-1.2c-1.2,0-2.2,0.4-3,1.2
		C125.4,13.5,125,14.5,125,15.6L125,15.6z M127.2,21c-1.3-0.5-2.3-1.2-3-2.1c-0.7-0.9-1-2-1-3.2c0-1,0.3-1.9,0.8-2.8
		c0.5-0.8,1.2-1.6,2.2-2.1c0.5-0.3,1-0.5,1.6-0.6c0.6-0.1,1.6-0.2,2.9-0.2h6v1.5h-3.5c0.7,0.6,1.2,1.3,1.5,1.9
		c0.3,0.7,0.5,1.4,0.5,2.3c0,1.4-0.4,2.6-1.3,3.6c-0.8,0.9-2.2,1.7-4,2.2c-0.3,0.1-0.7,0.2-1.2,0.3c-1.9,0.5-2.8,1.1-2.8,2
		c0,0.8,1.3,1.3,3.9,1.6l0.2,0c2.5,0.2,4.3,0.7,5.2,1.3c0.9,0.6,1.4,1.6,1.4,3c0,1.6-0.6,2.7-1.8,3.5c-1.2,0.8-3.1,1.2-5.6,1.2
		c-2.3,0-4-0.4-5.2-1.1c-1.2-0.7-1.8-1.8-1.8-3.2c0-1,0.4-1.9,1.2-2.6c0.8-0.7,1.8-1.2,3.2-1.3c-0.7-0.2-1.3-0.4-1.6-0.8
		c-0.4-0.4-0.6-0.9-0.6-1.4c0-0.6,0.3-1.2,0.7-1.6C125.6,21.6,126.3,21.2,127.2,21L127.2,21z M139.2,4.5v-3h1.8v3H139.2L139.2,4.5z
		 M139.2,26V9.8h1.8V26H139.2L139.2,26z M148,22.1c0,1.1,0.1,1.8,0.4,2.2c0.3,0.4,0.8,0.5,1.6,0.5c0.4,0,0.8-0.1,1.2-0.2
		c0.4-0.1,0.9-0.3,1.5-0.6v1.8c-0.5,0.2-1,0.4-1.5,0.5c-0.5,0.1-1,0.2-1.5,0.2c-1.3,0-2.3-0.3-2.8-1c-0.6-0.6-0.8-1.8-0.8-3.4V11.3
		h-3.5V9.8h3.5V6.1l1.4-1.6h0.4v5.3h4.3v1.5H148V22.1L148,22.1z M163.2,22.8v-5.1c-2.3,0-4.2,0.5-5.5,1.3c-1.4,0.8-2,1.9-2,3.2
		c0,0.8,0.3,1.5,0.8,2c0.6,0.5,1.3,0.7,2.3,0.7c0.7,0,1.4-0.2,2.1-0.5C161.6,24,162.4,23.5,163.2,22.8L163.2,22.8z M163.3,24.5
		c-0.9,0.7-1.7,1.2-2.5,1.5c-0.8,0.3-1.6,0.4-2.5,0.4c-1.3,0-2.4-0.4-3.2-1.2c-0.8-0.8-1.2-1.8-1.2-3c0-1.8,0.8-3.2,2.4-4.2
		c1.6-1,4-1.6,7-1.7v-1.7c0-1.2-0.3-2.1-0.9-2.7c-0.6-0.6-1.5-0.8-2.8-0.8c-0.8,0-1.6,0.2-2.4,0.5c-0.8,0.3-1.7,0.8-2.6,1.5v-1.8
		c0.9-0.6,1.8-1.1,2.6-1.4c0.8-0.3,1.7-0.4,2.5-0.4c1.9,0,3.2,0.4,4,1.3c0.8,0.9,1.2,2.3,1.2,4.2v8.5c0,0.4,0,0.6,0.1,0.8
		c0.1,0.2,0.2,0.3,0.4,0.3c0.3,0,0.8-0.3,1.5-0.9c0.2-0.2,0.3-0.3,0.4-0.3l0,1.6c-0.5,0.5-1,0.9-1.5,1.1c-0.4,0.2-0.8,0.4-1.2,0.4
		c-0.5,0-0.9-0.1-1.1-0.4C163.4,25.6,163.3,25.1,163.3,24.5L163.3,24.5z M169.9,26V1.5h1.8V26H169.9L169.9,26z"/>
	<path class="st1" d="M41.2,33.3h2.8v-8.8H44c1.2,2,3.8,2.7,5.5,2.7c5.2,0,7.7-4,7.7-8.8c0-4.8-2.6-8.9-7.8-8.9
		c-2.4,0-4.5,0.8-5.4,2.7h-0.1V9.8h-2.8V33.3L41.2,33.3z M54.3,18.1c0,3.3-1.3,6.6-5.1,6.6c-3.8,0-5.3-3.1-5.3-6.4
		c0-3.1,1.4-6.4,5.2-6.4C52.6,11.9,54.3,15,54.3,18.1L54.3,18.1z M75.5,24.5c-0.3,0.1-0.6,0.2-0.9,0.2c-0.9,0-0.9-0.6-0.9-1.9v-8.7
		c0-4-3.3-4.7-6.4-4.7c-3.8,0-7,1.5-7.2,5.7H63c0.1-2.5,1.9-3.2,4.2-3.2c1.7,0,3.8,0.4,3.8,2.8c0,2.1-2.7,1.9-5.7,2.5
		c-2.9,0.5-5.7,1.4-5.7,5.2c0,3.4,2.5,4.8,5.6,4.8c2.4,0,4.4-0.8,6-2.6c0,1.8,0.9,2.6,2.4,2.6c0.8,0,1.5-0.2,2-0.5V24.5L75.5,24.5z
		 M71,20.9c0,1.6-1.5,3.8-5.2,3.8c-1.7,0-3.3-0.7-3.3-2.5c0-4.2,6.3-2.6,8.5-4.2V20.9L71,20.9z M78.2,33.3H81v-8.8h0.1
		c1.2,2,3.8,2.7,5.5,2.7c5.2,0,7.7-4,7.7-8.8c0-4.8-2.6-8.9-7.8-8.9c-2.4,0-4.5,0.8-5.4,2.7H81V9.8h-2.8V33.3L78.2,33.3z M91.3,18.1
		c0,3.3-1.3,6.6-5.1,6.6c-3.8,0-5.3-3.1-5.3-6.4c0-3.1,1.4-6.4,5.2-6.4C89.7,11.9,91.3,15,91.3,18.1L91.3,18.1z"/>
	<path class="st2" d="M19,3.7c2.3,0,4.6,0.5,6.6,1.3l-1.5,3.7c-1.6-0.6-3.3-1-5.1-1c-1.8,0-3.5,0.4-5.1,1l-1.5-3.7
		C14.5,4.2,16.7,3.7,19,3.7L19,3.7L19,3.7z"/>
	<path class="st3" d="M6.8,8.8c1.7-1.7,3.6-2.9,5.6-3.8L14,8.8c-1.6,0.6-3,1.6-4.3,2.9c-1.3,1.3-2.2,2.7-2.9,4.3l-3.7-1.5
		C3.9,12.4,5.2,10.5,6.8,8.8L6.8,8.8L6.8,8.8z"/>
	<path class="st4" d="M1.7,21c0-2.3,0.5-4.6,1.3-6.6L6.8,16c-0.6,1.6-1,3.3-1,5.1c0,1.8,0.4,3.5,1,5.1l-3.7,1.5
		C2.2,25.6,1.7,23.4,1.7,21L1.7,21L1.7,21z"/>
	<path class="st0" d="M6.8,33.2c-1.7-1.7-2.9-3.6-3.8-5.6l3.7-1.5c0.6,1.6,1.6,3,2.9,4.3c1.3,1.3,2.7,2.2,4.3,2.9L12.4,37
		C10.4,36.1,8.5,34.9,6.8,33.2L6.8,33.2L6.8,33.2z"/>
	<path class="st5" d="M12.4,37L12.4,37l1.5-3.7c1.6,0.6,3.3,1,5.1,1c1.8,0,3.5-0.4,5.1-1l1.5,3.7L19,43.7L12.4,37L12.4,37z"/>
	<path class="st6" d="M31.2,33.2c-1.7,1.7-3.6,2.9-5.6,3.7l-1.5-3.7c1.6-0.6,3-1.6,4.3-2.9c1.3-1.3,2.2-2.7,2.9-4.3l3.7,1.5
		C34.1,29.7,32.9,31.6,31.2,33.2L31.2,33.2L31.2,33.2z"/>
	<path class="st7" d="M36.3,21c0,2.3-0.5,4.6-1.3,6.6l-3.7-1.5c0.6-1.6,1-3.3,1-5.1c0-1.8-0.4-3.5-1-5.1l3.7-1.5
		C35.8,16.4,36.3,18.7,36.3,21L36.3,21L36.3,21z"/>
	<path class="st8" d="M31.2,8.8c1.7,1.7,2.9,3.6,3.7,5.6L31.3,16c-0.6-1.6-1.6-3-2.9-4.3c-1.3-1.3-2.7-2.2-4.3-2.9l1.5-3.7
		C27.7,5.9,29.6,7.2,31.2,8.8L31.2,8.8L31.2,8.8z"/>
</g>
</svg>
