<?xml version="1.0" encoding="utf-8"?>
<!-- Generator: Adobe Illustrator 20.1.0, SVG Export Plug-In . SVG Version: 6.00 Build 0)  -->
<svg version="1.1" id="Minas_Gerais" xmlns="http://www.w3.org/2000/svg" xmlns:xlink="http://www.w3.org/1999/xlink" x="0px"
	 y="0px" viewBox="0 0 566 450" style="enable-background:new 0 0 566 450;" xml:space="preserve">
<style type="text/css">
	.st0{fill:#004576;}
	.st1{fill:#FFFFFF;}
</style>
<path class="st0" d="M301,428.3l8.6-5.4l0.4-0.3l0.5-0.1c3.7-1,7.5-1.4,11.2-1.2c4.1,0.3,8.1-1.6,16.1-5.5l2.4-1.1
	c7.3-3.6,11-3.2,16.9-2.5c3.9,0.6,7.8,0.8,11.8,0.7h3.3c11.6-0.3,14.8-0.4,27-5c6.2-2.4,12.4-7.9,18.4-15c6.1-7.3,12-16.4,17.6-25.3
	c3.8-6.2,5.4-9.1,6.2-10.7c0.3-0.8,0.8-1.5,1.3-2.1c1.5-1.7,2.3-1.4,3.7-1.2l0,0c0.3,0.1,0.5,0.1,2.1-0.4c0.6-0.2,1.1-0.4,1.7-0.5
	c0.1-3.2,0.3-9.6,0.3-11.9l0,0v-0.5c0-3.7-0.1-9.9,8.5-15.8c4.4-3,6.6-3.2,8.7-3.4c1.4-0.3,2.9-0.4,6.6-3.2c4-2.9,4.2-4.4,4.5-6.3
	c0.3-3.1,1.2-6.2,2.6-9c2.5-4.4,5.4-8.6,8.7-12.5c4.2-5.3,8.2-10.4,8.6-13.7c0.3-3.4,0-6.8-0.8-10c-1.4-4.5-3.5-8.8-6.1-12.8
	c-3.4-5.4-3.4-8-1.2-9.5c2-1.2,4-0.3,6.3,0.9c1.1,0.7,2.2,1.2,3.4,1.6c0.1,0,0.1,0,0.1-0.1c0.3-0.5,0.5-1.1,0.5-1.7
	c0.1-1.1,0-2.3-0.5-3.3c-1.1-2.7-2.9-5-5.2-6.7c-8.2-6.2-6.3-12.1-1.4-18.5c1.3-1.7,2.9-3.4,4.5-5.3c0.7-0.8,1.4-1.7,2.4-2.8
	c5.2-5.8,6.6-5.7,11.4-5.1c2.6,0.3,6.6,0.6,14.6-0.8c8.6-1.6,13.5-1.3,16.5-0.4c-0.8-1.3-1.7-2.8-2.6-4.4
	c-5.3-8.3-11.6-18.6-11-28.1c0.1-2.5,0.1-5,0.1-7.7c0.1-3.6,0.1-7.1,0.4-10c0.8-6.1,2.8-10.1,8.1-9.6c2.5,0.4,5,0.3,7.4-0.4l0,0
	c0.8-0.1,1.5-0.4,2.1-0.9c0.1-0.1,0.2-0.1,0.3-0.1v-0.3l0,0c-1.6-6.1,2.8-10.2,6.9-14.3l0,0c0.9-0.8,1.8-1.7,2.6-2.6l0,0
	c3.4-3.6,4.1-5.3,6.5-10.5l0.4-0.8l0,0c1.1-2.5,2-5.5,0.9-8c-1.2-2.6-4.6-5.1-12.7-6.6c-8.7-1.7-14.6-5.1-19.6-8.2
	c-5.7-3.4-10.4-6.2-17.7-4.5l0,0c-3.4,0.8-6.2,1.6-8.3,2.1c-9.9,2.8-12.3,3.6-15.9-5.1c-1.2-3.2-1.9-6.7-1.9-10.2
	c-0.1-2.9-0.3-5.3-2.3-6.7c-1.6-1.1-3-2.3-4.4-3.7c-2.9-3-6.2-6.2-16.7-7.6c-11.4-1.5-13.8-3-21.6-7.8c-3.6-2.2-8.3-5.3-15.9-9.4
	c-5.9-3.1-11.4-6.9-16.4-11.4c-4.5-3.7-5.6-4.8-16.3-1.4c-9.9,3-16.1,4.7-20.1,5.1c-5.8,0.5-8.2-1.5-9.1-5.8
	c-0.4-2.1,0.3-5.5,1.1-9.4c0.8-4,1.7-8.6,1.3-11.6c-0.1-1.1-0.7-1.9-1.9-1.7c-3,0.4-6.6,0.5-10.3,0.8c-9,0.4-18.6,0.9-23.9,4.9
	c-3,2.3-5.8,4.8-8.6,7.3c-5,4.7-10.3,9.6-17.6,13.3c-5,2.6-9.7,2.6-14.4,2.6c-6.1,0-12.6,0-20,7.4c-8.9,8.8-12.7,8.8-16.4,5.3
	c-0.9-1.1-1.8-2.2-2.5-3.4c-1.3-2.2-3-4.2-5-5.7c-4.1-2.9-6.7-7.1-8.9-10.7c-1.3-2.1-2.4-3.8-3.1-4.1c-0.3-0.3,0.3,0.8-0.5,2.4
	c-2.4,4.4-1.3,7-0.5,8.9l0,0c0.4,0.7,0.7,1.5,0.8,2.4c0.5,3.6-0.8,5.5-7.7,6.6c-6.1,0.9-10.3-1.3-13.1-2.8c-0.7-0.4-0.8-0.7-0.9-0.7
	l0,0c-1.3,0,1.7,0.5,1.7,2c-0.1,2.7,0.7,5.3,2.4,7.4c2.4,3.2,3.8,5.3-0.4,12.1c-3.8,6.5-2.9,10.4-2,14.5c0.3,1.1,0.5,2.2,0.7,3.3
	c1.3,7.4-1.9,8.4-9.3,11.1c-1.4,0.5-3.2,1.1-5.4,2c-7.5,3-7.5,4.1-8.1,9.9l-0.1,0.4c-0.4,5.3-3.1,6.7-5.3,7.9
	c-0.7,0.4-1.2,0.6-0.7,2.9c0.5,2.4,2.4,3.2,4.1,4l0,0c4.1,1.9,7.9,3.6,7.1,11.9c-0.3,3.4,0.1,4.5,0.5,5.3l0,0
	c1.2,2.9,1.7,4.1-4.1,13.6c-3,5.1-7.3,9.2-12.4,12.1c-1.9,1.2-2.8,1.9-2,3.2c1.1,1.9,2.9,3.2,5,3.8c0.5,0.3,1.1,0.5,1.7,0.8
	c3.3,1.9,4.6,4,1.4,9.9c-2.8,5-2.8,5.1-1.9,8.2l0,0c0.3,0.9,0.5,2,1.1,3.7c2,7.9-3.2,11.4-7.1,14l0,0c-1.1,0.8-1.9,1.3-1.9,1.3
	c-1.1,2.1-5.7,5.5-11.6,8.5c-5.1,2.6-10.5,4.6-16,5.9c-6.1,1.6-10.9,0.3-16-1c-5.3-1.5-11.1-2.9-19.6-1.1
	c-5.5,1.4-11.3,1.7-16.9,0.8c-4.6-0.5-8.1-0.8-13.8,3.6c-11,8.6-11.3,8.6-23.4,8.7h-6c-11.1,0.3-13.5,2.4-16.5,4.8
	c-1.7,1.6-3.5,2.9-5.6,4.1c-4.6,2.5-7.3,1.5-9.1,0.8c-0.7-0.3,0.9,0.3-0.3,3.6c-0.9,3-1.4,5.1-1.9,6.7c-0.2,1.6-0.7,3.1-1.6,4.5
	c-1.3,2-3.1,2.9-7.7,5.1l0,0c-7,3.4-6.6,4.8-6.6,4.8l0.1,1.3l-0.9,1.1l-4.1,5.3c1.6,5-0.5,12-2.6,17l0.8-0.1
	c7.7-1,17.9-0.8,28.4-0.3c8.8,0.4,17.6,1.8,26.2,4c4,0.9,7.9,2.2,11.8,3.7l0,0c0.4,0.1,5.2,0.4,10.1,0.7c4.8,0.3,9.6,0.5,11.5,0.9
	c3.8,0.7,4.2,3.3,5,7.1c0.5,3.9,2,7.6,4.2,10.8l0.3-1.1l0,0c0.9-3.3,1.9-7.1,4.6-9.5c3.2-2.8,7.9-2.1,14.3-1.3
	c7,0.9,16.4,2.1,25.8-1.5c12.7-4.8,20-2.4,26.3-0.3c2.6,0.9,5.1,1.9,7.9,1.9c8.5,0,10.3,3.4,10.3,9c0,1.3-0.3,2.8-0.4,4.5
	c-0.2,1.4-0.2,2.7-0.3,4.1c-0.3,3.3,0.9,4.4,2.2,5.5c2,1.8,3.5,4,4.5,6.5c1.9,4.8,0,8.2-2,11.9c-1.2,2.3-2.5,4.6-2.4,7.4
	c0.1,2.6,1.7,4.8,3.6,7c2.5,3.3,5.3,6.7,5.9,12.8c0.3,2.4,0.9,2.8,1.9,2.6c0.9-0.1,1.9-0.3,2.8-0.5c2.4-0.6,4.9-0.8,7.4-0.8
	c8.9,0.4,8.5,7,8.2,16c-0.2,2.4-0.2,4.7-0.1,7.1c0.4,11.6-1.2,13.9-10.7,28.4l0.1,0.1l-0.1,0.1H208c-2.1,3.4-1.7,4.9-0.5,5.7
	c1.4,0.8,2.8,1.4,4.2,2c4.6,1.8,9.5,3.7,10.6,9.2c1.1,5.8,4.9,7.4,11,9.8c1.3,0.5,2.8,1,4.6,1.9c4.8,2.1,5.9,0.3,8.5-3.8
	c1.2-1.9,2.6-4.1,4.5-6.7c5.4-7.1,12.2-7.1,21.6-7.1c6.5,0.2,13.1-0.4,19.4-1.9C294.9,428.8,297.9,428.4,301,428.3L301,428.3
	L301,428.3z"/>
<path class="st1" d="M237.3,230.4c-5.7,0-10.3,4.5-10.3,10.2c0,5.6,10.3,16.4,10.3,16.4s10.3-10.7,10.3-16.4c0,0,0,0,0,0
	C247.5,235,242.9,230.4,237.3,230.4z M237.2,245.2c-2.5,0-4.6-2.1-4.6-4.6c0-2.6,2.1-4.6,4.6-4.6c2.6,0,4.6,2.1,4.6,4.6
	C241.9,243.2,239.8,245.3,237.2,245.2z"/>
<path class="st1" d="M355.3,310.4c-5.7,0-10.3,4.5-10.3,10.2c0,5.6,10.3,16.4,10.3,16.4s10.3-10.7,10.3-16.4c0,0,0,0,0,0
	C365.5,315,360.9,310.4,355.3,310.4z M355.2,325.2c-2.5,0-4.6-2.1-4.6-4.6c0-2.6,2.1-4.6,4.6-4.6c2.6,0,4.6,2.1,4.6,4.6
	C359.9,323.2,357.8,325.3,355.2,325.2z"/>
<path class="st1" d="M442.3,221.4c-5.7,0-10.3,4.5-10.3,10.2c0,5.6,10.3,16.4,10.3,16.4s10.3-10.7,10.3-16.4c0,0,0,0,0,0
	C452.5,226,447.9,221.4,442.3,221.4z M442.2,236.2c-2.5,0-4.6-2.1-4.6-4.6c0-2.6,2.1-4.6,4.6-4.6c2.6,0,4.6,2.1,4.6,4.6
	C446.9,234.2,444.8,236.3,442.2,236.2z"/>
<path class="st1" d="M344.3,181.4c-5.7,0-10.3,4.5-10.3,10.2c0,5.6,10.3,16.4,10.3,16.4s10.3-10.7,10.3-16.4c0,0,0,0,0,0
	C354.5,186,349.9,181.4,344.3,181.4z M344.2,196.2c-2.5,0-4.6-2.1-4.6-4.6c0-2.6,2.1-4.6,4.6-4.6c2.6,0,4.6,2.1,4.6,4.6
	C348.9,194.2,346.8,196.3,344.2,196.2z"/>
</svg>
