<?xml version="1.0" encoding="utf-8"?>
<!-- Generator: Adobe Illustrator 20.1.0, SVG Export Plug-In . SVG Version: 6.00 Build 0)  -->
<svg version="1.1" id="Paraná" xmlns="http://www.w3.org/2000/svg" xmlns:xlink="http://www.w3.org/1999/xlink" x="0px" y="0px"
	 viewBox="0 0 542 357" style="enable-background:new 0 0 542 357;" xml:space="preserve">
<style type="text/css">
	.st0{fill:#004576;}
	.st1{fill:#FFFFFF;}
</style>
<path class="st0" d="M542,250.5c-18.3,0.7-12.7-26.3-25.1-7.3c-12.7,19.3-2.9,18.6-13.1,27s1.1,13.1-0.7,21.5
	c-0.9,4.5-3.9,8.6-6.1,14c-14.7-0.9-31.4,3.6-39.1,10.4l0,0l-1.6,1.1c-2.5,2.5-7.2,3.4-12.4,3.6c-7.6,0.2-15.1-0.8-22.4-3
	c-4.1-1-8.3-1.5-12.4-1.4c-8.4-0.5-19-0.9-32.8-8.4c-20.4-11.1-30.6-3.6-38.7,2.3l0,0c-1.8,1.1-3.4,2.3-4.8,2.9
	c-4.1,1.6-6.6,4.3-9.1,6.8c-3.2,3.4-6.8,7-14.7,6.1c-14-1.6-16.7,5.4-20.1,14.5c-1.6,4.1-3.2,8.6-7.2,12.2c-5.4,5-8.8,4.1-13.8,2.7
	c-3.9-0.9-8.4-2.3-14.7-2.5h-2.9c-13.1-0.5-19.2-0.7-39.6-12c-13.8-7.5-25.1-5.9-35.8-4.5c-7.7,1.1-14.9,2.3-22.2-1.4
	c-7.5-3.9-23.8-6.8-41.6-8.6c-7.5-0.9-22.9-1.1-37.1-1.1c-1.3-5.7-3.1-11.3-5.4-16.8c0,0-0.4-9.3-9.5-24.9s-17.9-29.5-29.9-25.8
	s-35.3,25.1-27.6-1.1s12-31.3,10.2-52.8c-1.8-21.5,12-36,8.4-57.6c-0.4-2.5-0.7-5.2-0.9-7.7c11.3-1.4,22.9-3.6,26.9-7.3
	c13.1-11.3,10.9-17.7,7.5-26.7c-1.3-2.8-2.3-5.8-2.7-8.8c-0.5-5,0.7-5.7,4.1-7c4.7-2.1,9.2-4.7,13.6-7.5
	c12.7-8.8,13.1-19.9,13.4-30.6c0-4.1,0.2-8.2,1.4-11.5c1.6-4.3,11.5-9.1,21.9-14c10.2-5,20.8-10.2,27.4-17c6.8-7,14-7,24.9-7
	c6.1,0,13.6,0.2,22.2-0.9c12.2-1.4,17.9,0,24.4,1.8c7.2,1.8,15.2,4.1,31.7,3.6c26.3-0.5,36.6,4.8,61.3,16.5c4.1,2,8.4,4.3,13.1,6.6
	c26.9,12.7,48.9,7.7,65.6,4.1c6.1-1.4,11.5-2.5,15.6-2.5c9.7,0.5,13.1,17.2,14.5,23.8c0.1,1,0.4,2,0.7,3c0.5,1.4,1.4,3.6,2.7,6.6
	c3.9,8.4,10.6,23.6,10.2,33.3c-0.2,7.7,0.2,14.5,2.3,20.9c2.1,6.8,5.8,13,10.9,18.1c4,4.3,7.1,9.4,9,15c2.1,6.2,3.1,12.7,3.2,19.3
	c0.7,18.4,7.5,19.5,20.6,21.5c1.5,0.2,3,0.5,4.5,0.9c3.2,0.5,6.1,0.9,9.1,1.1c8.6,0.9,17,1.8,19.2,8.9c0.7,2.5,1.4,5,1.8,6.8
	c2.7,10.7,3.2,11.8,15.1,10.9c3.4,0,7.5,1.8,11.3,5.7c4.8,4.5,8.3,10.2,10.2,16.5C537.3,244.9,539.3,247.6,542,250.5L542,250.5
	L542,250.5z"/>
<path class="st1" d="M387.3,146.4c-5.7,0-10.3,4.5-10.3,10.2c0,5.6,10.3,16.4,10.3,16.4s10.3-10.7,10.3-16.4c0,0,0,0,0,0
	C397.5,151,392.9,146.4,387.3,146.4z M387.2,161.2c-2.5,0-4.6-2.1-4.6-4.6c0-2.6,2.1-4.6,4.6-4.6c2.6,0,4.6,2.1,4.6,4.6
	C391.9,159.2,389.8,161.3,387.2,161.2z"/>
<path class="st1" d="M225.3,255.4c-5.7,0-10.3,4.5-10.3,10.2c0,5.6,10.3,16.4,10.3,16.4s10.3-10.7,10.3-16.4c0,0,0,0,0,0
	C235.5,260,230.9,255.4,225.3,255.4z M225.2,270.2c-2.5,0-4.6-2.1-4.6-4.6c0-2.6,2.1-4.6,4.6-4.6c2.6,0,4.6,2.1,4.6,4.6
	C229.9,268.2,227.8,270.3,225.2,270.2z"/>
<path class="st1" d="M138.3,154.4c-5.7,0-10.3,4.5-10.3,10.2c0,5.6,10.3,16.4,10.3,16.4s10.3-10.7,10.3-16.4c0,0,0,0,0,0
	C148.5,159,143.9,154.4,138.3,154.4z M138.2,169.2c-2.5,0-4.6-2.1-4.6-4.6c0-2.6,2.1-4.6,4.6-4.6c2.6,0,4.6,2.1,4.6,4.6
	C142.9,167.2,140.8,169.3,138.2,169.2z"/>
<path class="st1" d="M417.3,254.4c-5.7,0-10.3,4.5-10.3,10.2c0,5.6,10.3,16.4,10.3,16.4s10.3-10.7,10.3-16.4c0,0,0,0,0,0
	C427.5,259,422.9,254.4,417.3,254.4z M417.2,269.2c-2.5,0-4.6-2.1-4.6-4.6c0-2.6,2.1-4.6,4.6-4.6c2.6,0,4.6,2.1,4.6,4.6
	C421.9,267.2,419.8,269.3,417.2,269.2z"/>
<path class="st1" d="M217.3,64.4c-5.7,0-10.3,4.5-10.3,10.2c0,5.6,10.3,16.4,10.3,16.4s10.3-10.7,10.3-16.4c0,0,0,0,0,0
	C227.5,69,222.9,64.4,217.3,64.4z M217.2,79.2c-2.5,0-4.6-2.1-4.6-4.6c0-2.6,2.1-4.6,4.6-4.6c2.6,0,4.6,2.1,4.6,4.6
	C221.9,77.2,219.8,79.3,217.2,79.2z"/>
</svg>
