<?xml version="1.0" encoding="utf-8"?>
<!-- Generator: Adobe Illustrator 20.1.0, SVG Export Plug-In . SVG Version: 6.00 Build 0)  -->
<svg version="1.1" id="Rio_de_Janeiro" xmlns="http://www.w3.org/2000/svg" xmlns:xlink="http://www.w3.org/1999/xlink" x="0px"
	 y="0px" viewBox="0 0 629 425" style="enable-background:new 0 0 629 425;" xml:space="preserve">
<style type="text/css">
	.st0{fill:#004576;}
	.st1{fill:#FFFFFF;}
</style>
<path class="st0" d="M1.1,398.2l1.1-1V395l2.2-1.1h1.1v-1h1.1l1.1-1.1h2.2l1.1-1.1l-1.1-2.1l2.2-1.1l-1.1-1.1l2.2-1.1l-1.1-1.1
	l1.1-1H12l1.1-2.1H12v-1.1h-1.1l1.1-1.1v-3.2l1.1-1.1v-1.1l1.1-1v-2.2l1.1-1.1v-1.1h-1.1l1.1-2.1l-1.1-1.1l1.1-1.1v-2.1h6.5v-1.1
	l1.1-1l-1.1-1.1l2.1-2.2l3.3-2.1l1.1-1.1l1.1,1.1h3.3l2.2-3.2l2.2,2.1l3.3-2.1v-1.1l1.1-1.1l4.4-2.1h1.1l3.3-2.1l3.3,2.1l2.1-1.1
	l2.2-2.2l2.2-1.1l2.2-2.1h3.2l1.1,1.1l-1.1,2.1h1.1v1.1h1.1v1.1l3.3-1.1h1.1l1.1-1.1l1.1-2.1l1.1-1.1h3.2v1.1h4.4l7.6-3.2l1.1,1
	l-1.1,1.1h1.1v-1.1l3.3-2.1h2.2v1.1l2.2-1.1l2.2-4.3h2.2v-2.1H101l1.1-1.1l-1.1-1v-1.1l1.1-2.1h2.2l-1.1-1.1l3.2-3.3h3.3l1.1-1h-1.1
	v-1.1h1.1l2.1-1.1l1.1-1.1v-2.2h1.1l1.1-1.1v-2.1l-2.2-2.1l-2.1-2.2l1.1-1.1l-1.1-1.1h-1.1l-1.1-1.1v-2.1h-1.1l-1.1,1.1l-1.1-2.2
	h-3.2l-1.1,1.1l-3.2-2.2l-2.2,1.1v1.1l-1.1-2.2h-2.2l-1.1-1.1l-1.1,1.1l-1.1-2.1l-2.2,1.1l-1.1-1.1v2.1l-1.1-1.1v1.1l1.1,2.2h-2.2
	v-3.2h-1.1l1.1-2.1h-2.2l-2.2-1.1h-1.1v1.1l-2.1,1.1v1.1l1.1,1.1v1.1h-1.1l-1.1-1.1h-2.2l-2.2,1.1l-1.1,1.1h-1.1l-1.1,1.1l-2.2-1.1
	l-1.1-1.1h-1.1l1.1,1.1l-3.2,4.3h-1.1l-1.1-1.1h-3.3l1.1,1.1h-1.1v-1.1l2.2-2.1h-2.2l-2.2-2.2l-2.2,1.1l-1.1-2.2l-2.2,4.3h-1.1
	l-1.1-2.1l-1.1-1.1v1.1l-1.1,1.1l-2.2-2.2l-1.1,1.1l-1.1-1.1h-1.1v-4.3l1.1-3.2l-1.1-1.1L38,293l-1.1-1.1l-3.3,1.1v-2.1l1.1-1.1
	l-1.1-2.1l-1.1-1.1h-1.1l-1.1-1.1h-2.1v-3.2h-1.1l-1.1-1.1l1.1-2.2v-1l-1.1-4.3l-2.2-2.2l-2.1-2.1h-2.1l-2.2-1.1h-4.3l1.1-2.2
	l1.1-1.1h1.1l1.1-1.1h1.1l2.2-1h2.2l2.2-2.1h1.1l3.2,2.1l2.2-1.1l2.2,1.1h2.2l1.1,1v-1l2.2-2.1v-1.1l3.2-1.1v-2.1l1.1-1.1l3.3-1.1
	h1.1l1.1,1.1l2.2-1.1l1.1,1.1l3.3-1.1v1.1h2.2v-1.1l2.2-1.1v-1.1l3.2-1.1l4.4-4.3l1.1,1.1v-2.1l1.1-2.1h2.1l1.1-1.1l2.2,1.1h4.3v2.1
	h2.2l1.1-1.1l2.2-2.1l1.1,1.1h4.4l1.1,1l1.1-1h2.1l1.1-2.1v1l1.1-1h2.2l1.1,1v-1l1.1,4.3l1.1-1.1l1.1,1.1l1.1-1.1l2.2-1v-1.1l2.2-1
	v1h1.1l2.2-1l1.1-2.1h3.3l1.1-1.1l1.1-2.1l1.1,1.1l1.1-1.1h2.2v-4.3l1.1,1.1l2.2-1.1v-2.2l2.1,1.1v1.1l1.1-1.1h1.1v-2.1h1.1l4.3-1.1
	v-1.1h3.3l2.2,2.1l1.1-1.1h1.1l1.1-1.1h1.1v-1.1l3.2-1h1.1l2.2-1.1l6.5-2.1l1.1-1.1h2.1v-2.1l1.1,1.1v-1.1h1.1l1.1-1.1l2.2,1.1
	l2.2-1.1l2.2-1.1h2.2l4.3-3.2h2.2v1.1l1.1,1.1h-1.1l2.2,1.1v1.1h1.1l1.1,1.1l2.1-3.2h3.3l1.1-1.1h2.2l1.1,2.1v1.1l1.1-1.1v-2.1h2.2
	v-1.1h2.2l2.2,2.1l1.1-1.1v2.1h1.1v-2.1h1.1l1.1-2.1h1.1l1.1-1.1v3.2l2.2,1.1l1.1,1.1l1.1-1.1l5.4-1.1l1.1-2.1h1.1l1.1,1.1v1.1h6.5
	l4.4-2.1l1.1-1.1h2.2l4.4-3.2l3.2-2.1v-1.1l2.2-1.1h1.1l1.1,1.1h2.2l1.1-1.1l1.1,1.1l2.2,1.1l3.3-1.1h2.2l1.1-1.1l1.1,1.1l1.1-1.1
	l1.1,1.1v1.1l1.1,1.1h1.1l1.1,1.1h1.1l1.1-1.1v1.1l1.1,1.1l4.3-3.2h1.1v1.1l2.2,1.1h3.3v4.3l-3.3,2.1v1.1l1.1,3.2l1.1,2.1l2.2-1
	v-2.2l3.2-1.1h4.4v1.1l4.4-1.1l2.2-3.2l1.1-1.1l-1.1-1.1v-1.1l2.1-1.1l3.3-1.1h1.1l4.3-3.2h1.1l2.1-1.1l6.5-2.1l4.3-4.3v-1.1
	l5.4-2.1l8.7-2.1l4.4-2.2l1.1-1.1l6.5-3.2l6.5-2.2l1.1-1.1l3.3-1.1l4.3-1.1l2.2-1h2.2l2.2-1.1v-2.2l7.6-3.2l10.9-4.3l1.1-1.1
	l10.9-3.2l1.1-2.2h1.1l3.2-1h3.3l4.3-1.1v-1.1l6.5-2.1v-5.4l-1.1-1.1l-1.1,1.1l-1.1-2.1h1.1l-1.1-1.1l-2.2-1.1h-3.2l-1.1,1.1h-1.1
	l-1.1-1.1v-2.1h-3.3l-1.1-1.1l2.2-2.1h-1.1l-1.1-1.1l3.3-4.3l1.1-1l3.3-2.2l-1.1-1.1v-1.1l3.2-1.1v-1l1.1-1.1v-1l1.1-1.1h2.2
	l1.1-3.2l2.1-1.1l1.1-1.1l-2.2-3.2v-1.1l-3.2-1.1l1.1-2.2v-2.1l1.1-1.1v-3.2l1.1-1.1l1.1,1.1h2.2l1.1-1.1l1.1-1l-2.2-1.1h-1.1l2.2-1
	v-1.1l2.2-1.1l-1.1-2.1l1.1-1.1l-1.1-1l2.2-1.1l-1.1-1.1h-1.1v-1.1l1.1-2.1v-4.3l1.1-1.1l1.1-1.1l2.2-1.1l1.1-1.1l1.1-1.1l-1.1-1.1
	l1.1-2.2l-1.1-1.1v1.1l-1.1-1.1V73l1.1-1.1l-2.1-4.3h1.1v-1.1l1.1-1.1v-1l1.1-1.1l1.1-1.1l1.1-2.1h1.1v-4.3h4.3v-1.1l1.1-1.1v-2.1
	h2.2v-1.1l3.3-3.2V44l1.1,1.1h2.2V44l-1.1-1l-2.2-2.2h-2.2l-1.1-1h-1.1l-2.2-2.1v-1.1l-2.2-1.1v-1.1l2.2-2.2l2.2-1l1.1,1h1.1v-1
	l1.1-1.1l2.1-2.2l1.1,1.1h3.3l3.3-1.1l1.1-1.1h2.2l3.2,1.1l1.1-1.1l3.3,1.1v-2.1l1.1-1.1v1.1l1.1-2.1l-1.1-1.1l1.1-1.1v-2.1l2.2-1
	l-1.1-1.1l1.1-1l2.2-1.1l1.1-1.1l1.1-1l-2.2-2.2l2.2-4.3l-1.1-1.1h4.4l1.1-1.1h2.2l1.1-1.1l-1.1-1.1l1.1-1.1h1.1l2.2-1.1l1.1,2.2
	l2.2,1.1l1.1,1.1v1.1l2.2,1.1l1.1-1.1l-1.1,2.2h2.2l1.1-1.1h4.4v1.1h2.2v2.1l1.1-1.1l1.1,1.1v2.1l-1.1,3.2l1.1,2.1v1.1l2.2-1.1
	l2.2,1.1h-1.1l-1.1,3.2v1.1h1.1l-1.1,3.2l-1.1,1.1H504l1.1,3.2l2.2,1.1v4.3h1.1v2.2h-1.1v2.1l-1.1,1l2.2,1.1l-1.1,1.1h-1.1v1
	l1.1,2.1v2.1h-1.1v-1.1h-1.1v2.1h1.1v1.1h1.1l-2.2,4.3v1.1h4.3v1.1l-2.1,1.1V59h2.1V58h2.2l1.1,1.1h1.1v1.1l1.1-1.1h1.1v1.1l2.1,1.1
	v1.1h3.3l3.2,2.2l3.3-1.1l1.1,2.2l2.2,1.1v1.1l1.1,1.1l1.1-2.1l1.1,2.1l3.3-1.1l2.2,2.1v-2.1h1.1l1.1,1.1h3.2v2.2l2.2,1l2.2,1.1
	l1.1,1.1h2.2l2.1-2.1h1.1v-1l1.1,1l1.1-1l1.1,1h2.2v-1l1.1,1h1.1l4.3,1.1h1.1l1.1,1.1h1.1v1.1l1.1-1.1l2.1,3.2h2.2l1.1,1.1v-1.1h2.2
	l1.1-2.1h4.4v1.1h1.1v1.1h2.2l1.1,1.1h2.2l0,0h1.1l0,0l1.1-1.1l-1.1,1.1h4.3l2.2-1.1l1.1-1.1h2.2l3.3-1.1l1.1-1.1l1.1,1.1h1.1
	l1.1,1.1h1.1l2.2,1.1l2.2,3.2l2.2-1.1h3.3l1.1,3.2v2.2l1.1,1.1h1.1l1.1-1.1v1.1h1.1v1.1h1.1V88h1.1v2.1l-1.1,4.3l1.1,3.2h-1.1
	l-2.2,5.4h-1.1l-2.2,1l-1.1,3.3l-3.3,4.3l-2.2,2.2l-1.1,1.1l-3.3,3.2l-1.1,4.3v5.4l3.3,6.4l1.1,2.1l2.2,1.1h2.2l1.1,1.1l0,0
	l-2.2,11.8v6.4l3.3,11.8l4.3,19.3l1.1,5.4v4.3l-2.2,4.3l-1.1,2.2l-2.2,1.1l-6.5,3.2l-5.4,3.2l-7.6,5.4l-4.3,3.2l-7.6,3.2l-6.5,2.2
	l-7.6,3.2L554,234l-8.7,2.1l-8.7,3.2l-6.5,3.2l-4.4,1.1l-3.2,2.1l-10.9,5.3l-7.6,6.5h-2.2l-2.2,2.2l-1.1,1.1v2.1h1.1l-1.1,1l1.1,1.1
	l-3.3,2.2h-1.1l-4.4,2.1l-3.3,3.2l-2.2,2.2v2.1l-1.1,3.2h-1.1l-1.1,1.1h-2.1l-2.2,1.1l-2.2,4.3l-1.1,1.1l-1.1,2.1h-1.1l-1.1-2.1
	l-2.2,1.1l-2.1,2.1L466,293l-2.2,6.4l-1.1,2.2v8.6l2.2,8.6l1.1,2.1h3.2v1.1l2.2,3.2l2.2,2.1h2.2l1.1-1l-1.1-1.1h2.2v-1.1l2.2,1.1
	l1.1-1.1V322l1.1,1.1V322l1.1,1.1l-1.1,1.1l2.1,1.1l-1.1,1.1h-1.1l-1.1,2.1v-1.1h-1.1l1.1,2.1l-1.1-1l-1.1,1H478l-1.1-1l-2.2,1
	l-1.1,2.2v3.2l-2.2-1.1v1.1l-4.3,1.1l-2.2,4.3v3.2l1.1-1.1l-1.1,1.1v1.1l-1.1,1.1h-1.1l-1.1,1.1v-1.1h-1.1l-2.1,2.1l-1.1,1.1
	l-1.1,3.2v2.1l1.1,2.1h1.1v1l1.1,1.1l1.1-1.1l1.1-1v1l-1.1,1.1h2.2l-1.1,1.1l-1.1-1.1l-1.1,1.1h1.1l-1.1,1v1.1h1.1v3.2l-1.1-2.2
	l-3.3-1l1.1-1.1l-2.2-1l-5.4-2.2l-33.7-2.1l-12-1.1h-18.5l-2.2,1.1l-3.2-1.1h-19.6l-6.5,1.1l-1.1,1.1v2.2h-2.2l-3.3-1.1l-15.2,1.1
	l-9.8,1.1l-7.6,1l-5.4-1h-6.5l-2.2,1h-2.2l-1.1,1.1l-1.1-1.1h-1.1l-1.1,1.1v-1.1h1.1l-2.2-2.1l-4.3-1.1h-4.4l-1.1-1v-1.1h-3.2
	l2.2-1.1V352l1.1,1.1h1.1l-1.1,1.1h2.1l1.1-1.1V351h-2.2l-1.1-1.1h-1.1l-1.1,1.1l-1.1-2.2l2.2-1.1v-1l-2.2-1.1l1.1-1.1h1.1l1.1,1.1
	l1.1-2.2l1.1-2.1l2.2-2.1l-1.1-1V337l2.2-2.2l3.2-2.1l-2.2-1.1l-1.1-1.1l2.2-2.1v-1.1l1.1-1l5.4-3.2v-3.2l-1.1-1.1v-1.1l1.1-1.1
	l-1.1-1.1l1.1-1.1h-2.1v-1.1l-1.1,1.1l-1.1-1.1h-1.1l-3.2-1.1l-1.1,1.1h-3.3l1.1,2.2l-1.1-1.1l-1.1,1.1v1.1l-1.1,1.1l-1.1,1.1
	l-2.2-1.1l-1.1-1.1l-2.2,1.1v1.1h-2.2l-5.4,1.1v1l-1.1,1.1H265l-1.1,1.1h-1.1l1.1,1.1l-2.2,1.1l0,0l-3.2,2.1v1.1l-1.1,1h1.1
	l-2.2,3.3v1.1l1.1,1.1l1.1-1.1v1.1l1.1,1.1l2.2,2.2l1.1,1l1.1,3.2l1.1-1.1l-1.1-3.2l-1.1-1.1v-1.1h-2.2l-1.1-2.1l1.1-1.1l1.1,1.1
	h1.1v-1.1l2.2-2.1l1.1-1.1h1.1l2.1,2.2h3.3l-1.1-1.1l1.1-1.1h1.1l1.1-1v1l1.1-1h1.1v1l-1.1,1.1l-2.2,2.1v1.1l1.1,2.1h1.1l-1.1,1.1
	l-1.1-1.1l-1.1,2.2l-1.1-2.2h-2.2l-1.1-1.1l-2.2,1.1l-2.2,2.2l1.1,1l1.1-1v1l1.1,1.1l-1.1-1.1H265v1.1l1.1,1.1h3.3l-2.1,1.1l1.1,1.1
	h-3.3l1.1,1.1h1.1l2.1-1.1l1.1,1.1l-2.2,2.1l1.1,1l2.2-1h2.2v1l0,0l1.1,1.1h2.2v2.2h-2.2l0,0l1.1,1l-1.1,2.1l1.1,1.1h-2.2v1.1l1.1,1
	l1.1-2.1h1.1l1.1,1.1l-2.2,1h1.1v1.1h-1.1l-3.2,2.1v1.1l1.1,1h-6.5l-4.4,2.2h-4.3l-2.2,1.1v1h-1.1l-1.1-1l-1.1-1.1l-2.2-1.1v-1.1
	h-2.1l-1.1-1l-3.3-1.1h-3.3l-2.1,1.1l-1.1-1.1l-1.1,1.1l1.1,1l-1.1-1l-1.1,1h1.1v1.1l3.3-1.1v1.1l1.1-1.1l-1.1-1h5.4l2.1,1h-1.1v1.1
	l-1.1-1.1l-1.1,1.1h6.5v1.1h1.1l1.1,1.1l2.2,1h-9.8l-14.1,1.1l-3.3,1.1l-1.1,1.1l0,0h-3.2l-2.2,1.1l-1.1,1.1l-4.3,1l-2.2,1.1v2.1
	h-2.2v-1.1l-2.2-1.1l-2.2-1.1h-11.9l-17.4,1.1l-13.1,2.1l-15.2,2.2l-5.4,2.1h-2.2l-1.1-1.1v-2.2h-1.1l1.1-1h1.1l1.1-1.1v-1.1h1.1
	l2.2-2.1l3.3-1.1l1.1,1.1l2.2,2.1h2.2l3.3,1.1h2.2l1.1-1.1v-3.2l-2.1-1.1l-2.2-1.1l-1.1-1.1l1.1,1.1l2.2,1.1l4.3,2.2l5.4,2.1h5.4
	l14.1-1.1l6.5-2.2l8.7-1.1h1.1l1.1,1.1l5.4,2.2v2.1l1.1-2.1v-1h-1.1v1l-1.1-1l-1.1-1.1l-1.1-1.1h-1.1l-1.1-2.1l-3.2-1.1l-1.1-1h-2.2
	v-1.1h-2.2l-2.2-2.2l-1.1-1l-2.2,1v1.1l-1.1-1.1h-1.1l-2.2-3.2l-1.1,1v-1l-1.1-2.2l-5.4-3.2v-1.1l-1.1,1.1l-1.1-1.1V352h-1.1l-2.1-1
	h-1.1l-2.2,1v-1l-1.1-1.1l1.1,2.1l-2.2,1.1h-2.2l-1.1-1.1l2.1-1l1.1-1.1l-1.1-1.1h-3.3l-2.1,1.1l-1.1,1.1l-1.1,1l2.2,1.1l-1.1,2.1
	v1.1h-1.1l-2.2,2.2h-1.1l-1.1-1.1l1.1-1l-1.1-1.1h-1.1l0,0h1.1v-1.1l2.1-1.1l1.1,1.1v-1.1h1.1V352h-1.1l-3.3,1.1h-6.5l-2.2,1.1h-3.3
	l-1.1,1.1h-1.1l-2.2,1.1l-1.1,1v1.1H138l-1.1,3.2l-2.1,1l-1.1-1l2.1-3.2l-1.1-1.1l1.1-1l-1.1-1.1l-2.2,1.1l-2.2,1l-1.1,1.1v1.1
	l1.1,1l-1.1,3.2h-2.2v2.2l-3.2,2.1l-4.4,2.1h-1.1v1.1l-1.1-1.1v1.1h-1.1l1.1-1.1h-1.1l-2.2,1.1h1.1v1.1l-1.1,1l-1.1-1v1h-2.1
	l1.1-2.2h-1.1l-5.4,2.2l-1.1,1.1l-1.1-1.1v-1l-1.1,1v-1h1.1l1.1-3.3l2.2-1.1V367h-1.1l-2.2-2.1h-1.1v-1.1L101,366l-1.1-1.1l-1.1,1.1
	l-1.1,1v1.1l-1.1-1.1l-1.1,1.1v1.1h-1.1l-1.1-1.1l1.1-2.1l-1.1-1.1v1.1h-2.2l0,0l-1.1,1v1.1h-1.1v1.1l-1.1-1.1l-2.2,2.1v-2.1h-1.1
	V366l1.1-1.1l1.1-1.1h3.3v-2.1l1.1,1l1.1-1v-1.1l1.1-2.1h1.1v-1.1l-2.1,1.1l-1.1-1.1l-2.2,1.1l0,0l-1.1-1.1h1.1v-1l1.1-1.1l1.1-1.1
	h-1.1V352l-1.1,1.1L88,352h-1.1l-1.1,1.1l-1.1-1.1h-1.1l1.1,1.1h-1.1l1.1,1.1h-2.2l1.1,2.1v-1.1l3.2,1.1l-2.2,1l-1.1,1.1h-1.1v1.1
	h-1.1v1l-1.1-1l1.1-1.1l-2.2-2.2l-2.1,1l-1.1-2.1v1.1H75v2.2l-1.1-1.1v1.1h-1.1v2.1l1.1,1.1h-1.1v1l-1.1,1.1h2.2v1.1h-2.2l-1.1,2.1
	l1.1,1.1h2.2l-2.2,1.1l-2.1-2.1l-1.1,1.1V366h-1.1v1l-1.1-1h-1.1l-1.1,2.1l-2.1,2.1l-1.1-1.1h-3.3l-3.2,2.1h-1.1l-2.2,1.1H50v1
	l-1.1,1.1l-2.2,1.1l1.1-2.1v-1h-1.1l-2.2,1v-1h-1.1l-3.3,1v-1h-1.1l-1.1,2.1l-1.1-1.1v1.1l-1.1-1.1l-2.2,2.1v1.1h-1.1v1l-1.1,1.1
	l1.1,1.1h-1.1l-1.1,1.1v3.2l2.2,1.1l0,0l-1.1,1.1h-1.1v2.1h1.1l-1.1,2.1h-1.1v1.1l1.1,1.1l-2.1,1v1.1h1.1l-1.1,1.1h-1.1v2.1l1.1,1
	l1.1,1.1l-1.1,1.1h1.1l-1.1,1.1h3.3v-1.1h1.1l1.1-1.1h1.1l-1.1-1.1h1.1v-1l1.1,1v-1h1.1L38,395h1.1v2.1h3.2v1h1.1l-1.1,1v2.2h-2.2
	v1.1h-1.1v-1.1l1.1,1.1v-1.1h1.1v-1.1h-1.1v-1.1l-2.2,2.2v-1.1l-2.1-1.1l1.1,2.2l-1.1,1.1l1.1-1.1H38l-2.1,2.2h-1.1l-1.1,1v-1
	l-1.1,1h1.1l-2.2,1h2.2l1.1-1v1h1.1l1.1-2.1h4.3l3.3-1.1l-2.2,2.1l-2.2,5.4l-3.3,2.1v1.1l3.3,1.1l-1.1-1.1v-1.1h1.1l1.1-1.1l2.2-4.3
	l3.3-2.2v-1l3.3-1.1l3.3-1.1l0,0l-1.1,1.1l-2.2,2.1v1l-1.1,2.2l1.1,1l3.3,1.1l1.1-1.1v1.1l2.2-1.1l3.3,2.1l0,0l1.1,1.1h1.1v1.1
	l-1.1,1.1l-1.1-2.2h-3.3l-1.1,2.2l-1.1,1l-1.1-1l-1.1,3.2v1.1l-3.3,4.3l-1.1,1.1h-1.1l-1.1,1.1v-3.2h-2.2v-1h-1.1l-1.1,1v-2.2
	l-1.1-1.1l-1.1,1.1l-1.1,1.1h-2.1l1.1,1l-2.2-1l-1.1-1.1v2.2h-1.1l-2.2-1l-3.2,1v1.1h-1.1l-1.1,1.1l1.1,1.1l-1.1-1.1l-1.1-1.1h-1.1
	l-2.2-2.1l-3.3-1.1h1.1l-1.1-2.1v-1l-1.1-2.1v-1.1l-3.2-1.1V411l-3.3,1.1l1.1-1.1l-1.1-1v-1.1l-2.2-1l1.1-1.1l-3.2-1.1H2.2v-3.2H1.1
	L0,401.4l1.1-1.1L1.1,398.2L1.1,398.2z M511.6,267.3v-1.1h1.1v1.1H511.6z M509.5,268.3l1.1-1.1l1.1,1.1h-1.1l1.1,1.1h-2.2
	L509.5,268.3L509.5,268.3z M271.6,370.3L271.6,370.3z M220.5,373.5L220.5,373.5z M124.9,368.1L124.9,368.1z M33.7,382.1v1.1l0,0
	V382.1z M164,356.3L164,356.3h1.1v1H164V356.3z M147.8,356.3v-1.1h1.1L147.8,356.3z M258.6,370.3h-1.1v-1.1h1.1V370.3z M32.6,382.1
	L32.6,382.1z M35.9,403.6l-1.1-1.1l-1.1,1.1H35.9L35.9,403.6z M32.6,393.9L32.6,393.9z M51.1,408.9L51.1,408.9z M46.7,378.9
	L46.7,378.9L46.7,378.9z M52.1,373.5h2.2v1.1h-1.1v1.1h-1.1v-1.1h1.1v-1.1H52.1L52.1,373.5z M149.9,358.5L149.9,358.5z M41.3,374.6
	h1.1v1.1h-1.1V374.6z M211.8,377.8L211.8,377.8z M120.6,371.3L120.6,371.3z M253.1,371.3v-1.1h1.1v1.1H253.1z M149.9,369.2
	L149.9,369.2z M269.4,369.2L269.4,369.2z M51.1,422.9v-1.1l0,0V422.9z M35.9,391.7v-1.1l0,0V391.7z M151,368.1L151,368.1z
	 M156.4,363.8v-1.1h1.1v1.1H156.4z M269.4,371.3h1.1l0,0H269.4z M36.9,395L36.9,395z M48.9,397.1H50v1h-1.1v1l-2.2,1.1l-1.1,1.1
	h-2.2l2.2-1.1l2.2-2.2h1.1V397.1z M44.5,375.6v-1.1h1.1v-1.1h1.1l-1.1,1.1v1.1H44.5z M220.5,375.6L220.5,375.6z M50,396V395h1.1v1.1
	H50z M278.1,374.6h1.1l0,0H278.1z M156.4,361.7L156.4,361.7z M121.7,371.3v-1.1l1.1,1.1H121.7z M270.5,375.6h1.1v1.1h-1.1V375.6z
	 M39.1,376.7v-1.1h1.1v1.1H39.1z M284.6,327.3v-3.2h1.1l-1.1,1.1l1.1,1.1L284.6,327.3z M31.5,390.6l1.1-1.1l1.1,1.1l-2.2,2.2
	L31.5,390.6L31.5,390.6z M133.6,366l1.1-1.1l2.1-1.1l1.1,2.2l-2.2,1v-1l-1.1,1L133.6,366z M152.1,366v-1.1l1.1-1.1l1.1-1.1h1.1v1.1
	l-1.1,1.1l-1.1,2.1L152.1,366z M264,342.4v2.2l1.1-1.1v-1.1H264z M102.1,398.2H101l1.1-1L101,396l-2.2,1.1l1.1-2.1l-1.1-1.1h-5.4
	l-2.2,1.1l1.1,1.1l-3.3,3.2v2.2h-2.2l1.1-1.1h-2.2v-1.1l1.1-1L88,396V395l-1.1-1.1l-2.2,2.1v-2.1l-2.2,1.1l-1.1-1.1v-1l2.2-1.1h1.1
	l1.1-1.1h1.1l1.1-1.1h2.2l1.1-1l-1.1-1.1l1.1-1.1l1.1,1.1v-2.2l3.3-2.1l-1.1,3.2h1.1v1.1h1.1l1.1-2.2h1.1l-1.1-1.1h3.3v-1h1.1V381
	H101l3.3-1.1v-1.1h1.1v1.1h3.2v1.1h2.2v1.1h-3.3v1.1h1.1l1.1-1.1v2.1h5.4v3.3h2.2v-1.1h1.1v-1.1l3.2-1.1l1.1,1.1l-1.1,1.1l-2.2,1.1
	l1.1,1.1l-1.1,2.1h2.2l2.2-2.1v1l1.1,2.1h3.2l-1.1,2.1h-2.1l-1.1,1.1h-2.2l1.1-1.1l-1.1-1l-1.1-1.1l-3.2,1.1l-2.2,2.1l-1.1-1.1H113
	l-1.1,2.1h1.1v1.1l-2.1,1v-1l-1.1-1.1l-3.3,1.1h-3.2L102.1,398.2z"/>
<path class="st1" d="M185.4,235.4c-5.7,0-10.3,4.5-10.3,10.2c0,5.6,10.3,16.4,10.3,16.4s10.3-10.7,10.3-16.4
	C195.7,239.9,191.1,235.3,185.4,235.4z M185.4,250.2c-2.5,0-4.6-2.1-4.6-4.6c0-2.6,2.1-4.6,4.7-4.6c0,0,0,0,0,0
	c2.6,0,4.6,2.1,4.6,4.7C190,248.1,187.9,250.2,185.4,250.2z"/>
<path class="st1" d="M268.6,277.3c-5.7,0-10.3,4.5-10.3,10.2c0,5.6,10.3,16.4,10.3,16.4s10.3-10.7,10.3-16.4c0,0,0,0,0,0
	C278.9,281.9,274.3,277.3,268.6,277.3z M268.6,292.1c-2.6,0-4.6-2.1-4.6-4.6c0-2.6,2.1-4.6,4.6-4.6v0c2.6,0,4.6,2.1,4.6,4.6
	C273.3,290.1,271.2,292.1,268.6,292.1z"/>
<path class="st1" d="M326,212C326,212,326,212,326,212c-5.7,0-10.3,4.5-10.3,10.2c0,5.6,10.3,16.4,10.3,16.4s10.3-10.7,10.3-16.4
	C336.3,216.5,331.7,212,326,212z M326,226.8c-2.5,0-4.6-2.1-4.6-4.6c0-2.6,2.1-4.6,4.6-4.6c2.6,0,4.6,2.1,4.6,4.6
	C330.6,224.7,328.5,226.8,326,226.8z"/>
<path class="st1" d="M365,301c-5.7,0-10.3,4.5-10.3,10.2c0,5.6,10.3,16.4,10.3,16.4s10.3-10.7,10.3-16.4c0,0,0,0,0,0
	C375.2,305.6,370.6,301,365,301z M364.9,315.8c-2.5,0-4.6-2.1-4.6-4.6c0-2.6,2.1-4.6,4.6-4.6c0,0,0,0,0,0v0c2.6,0,4.6,2.1,4.6,4.6
	C369.5,313.8,367.5,315.9,364.9,315.8z"/>
<path class="st1" d="M390,228c-5.7,0-10.3,4.5-10.3,10.2c0,5.6,10.3,16.4,10.3,16.4s10.3-10.7,10.3-16.4
	C400.3,232.5,395.6,227.9,390,228z M389.9,242.8c-2.5,0-4.6-2.1-4.6-4.6c0-2.6,2.1-4.6,4.6-4.6c2.6,0,4.6,2.1,4.6,4.6
	C394.6,240.7,392.5,242.8,389.9,242.8z"/>
<path class="st1" d="M469.1,121C469,121,469,121,469.1,121c-5.7,0-10.3,4.5-10.3,10.2c0,5.6,10.3,16.4,10.3,16.4
	s10.3-10.7,10.3-16.4C479.3,125.5,474.7,121,469.1,121z M469,135.8c-2.5,0-4.6-2.1-4.6-4.6c0-2.6,2.1-4.6,4.6-4.6
	c2.6,0,4.6,2.1,4.6,4.6C473.6,133.8,471.6,135.8,469,135.8z"/>
<path class="st1" d="M556.7,180.7c-5.7,0-10.3,4.5-10.3,10.2c0,5.6,10.3,16.4,10.3,16.4s10.3-10.7,10.3-16.4c0,0,0,0,0,0
	C567,185.2,562.4,180.7,556.7,180.7z M556.7,195.5c-2.5,0-4.6-2.1-4.6-4.6c0-2.6,2.1-4.6,4.6-4.6c2.6,0,4.6,2.1,4.6,4.6
	C561.3,193.5,559.2,195.5,556.7,195.5z"/>
<path class="st1" d="M464.1,194.6C464.1,194.6,464.1,194.6,464.1,194.6c-5.7,0-10.3,4.5-10.3,10.2c0,5.6,10.3,16.4,10.3,16.4
	s10.3-10.7,10.3-16.4c0,0,0,0,0,0C474.4,199.1,469.8,194.6,464.1,194.6z M464.1,209.4c-2.5,0-4.6-2.1-4.6-4.6c0-2.6,2.1-4.6,4.7-4.6
	c0,0,0,0,0,0c2.6,0,4.6,2.1,4.6,4.7S466.6,209.4,464.1,209.4z"/>
<path class="st1" d="M430.6,268.7c-5.7,0-10.3,4.5-10.3,10.2c0,5.6,10.3,16.4,10.3,16.4s10.3-10.7,10.3-16.4c0,0,0,0,0,0
	C440.9,273.2,436.3,268.7,430.6,268.7z M430.6,283.5c-2.5,0-4.6-2.1-4.6-4.6c0-2.6,2.1-4.6,4.6-4.6c2.6,0,4.6,2.1,4.6,4.6
	C435.2,281.5,433.2,283.5,430.6,283.5z"/>
<path class="st1" d="M152.3,310.4c-5.7,0-10.3,4.5-10.3,10.2c0,5.6,10.3,16.4,10.3,16.4s10.3-10.7,10.3-16.4c0,0,0,0,0,0
	C162.5,315,157.9,310.4,152.3,310.4z M152.2,325.2c-2.5,0-4.6-2.1-4.6-4.6c0-2.6,2.1-4.6,4.6-4.6c2.6,0,4.6,2.1,4.6,4.6
	C156.9,323.2,154.8,325.3,152.2,325.2z"/>
</svg>
