<?xml version="1.0" encoding="utf-8"?>
<!-- Generator: Adobe Illustrator 20.1.0, SVG Export Plug-In . SVG Version: 6.00 Build 0)  -->
<svg version="1.1" id="São_Paulo" xmlns="http://www.w3.org/2000/svg" xmlns:xlink="http://www.w3.org/1999/xlink" x="0px" y="0px"
	 viewBox="0 0 552 370" style="enable-background:new 0 0 552 370;" xml:space="preserve">
<style type="text/css">
	.st0{fill:#004576;}
	.st1{fill:#FFFFFF;}
</style>
<path class="st0" d="M511.1,254.3c-28.2,10.3-116.4,44.5-117.7,46c-14.3,17.3-75.3,31.5-81.5,49.8c-3.1,9.2,0.2,15.9-0.5,19.9
	c-2.1-1.9-3.8-3.6-4.1-4.5c-1.9-6.1-5.3-11.6-9.8-16.1c-4.6-4.5-10.2-6.7-15.1-6.5c-2.1,0.2-2.2,0-2.6-1.9c-0.5-1.4-0.9-3.3-1.7-5.5
	c-3.3-10.6-12.2-11.6-21.7-12.7c-2.1-0.2-4.3-0.5-6.4-0.9c-1.4-0.2-2.6-0.3-3.6-0.5c-5.3-0.8-8.1-1.4-8.4-8c0-5.9-1-11.7-2.9-17.3
	c-1.8-5.3-4.8-10.2-8.8-14.2c-2.9-2.9-5-6.5-6.2-10.4c-1.2-4.2-1.6-8.5-1.2-12.8c0.3-9.4-5.5-22.1-8.6-28.9c-0.9-2-1.5-3.4-1.7-3.9
	c-0.1-0.5-0.2-1-0.3-1.5c-1.4-6.9-5-24.3-19.3-24.8c-4.1-0.2-8.6,0.9-13.9,2c-11.4,2.6-26.5,5.8-44.2-2.6c-3.8-1.7-7.1-3.3-10-4.8
	c-20-9.6-28.6-13.7-50.6-13.4c-11.2,0.2-16.8-1.2-21.7-2.6c-5.9-1.4-11-2.7-21.9-1.5c-5.2,0.6-10.5,0.8-15.8,0.7
	c-4,0-7.6,0-10.8,0.3c3.1-3.9,6-7.5,7.6-8.4c1.4-0.7,2.8-1.4,4.1-2c5.1-2.9,13.4-7.4,34.6-16.4c20.8-9.1,22.4-28.6,23.6-46.2
	c0.7-7.7,1.2-15,3.4-20.2c4.5-10.1,12.4-19.9,19.1-28.2c5-6,9.3-11.3,11.5-15.7c1.6-3.3,4.1-6.3,6.5-9.6
	c5.1-6.7,10.7-13.5,11.4-23.1c0.2-3.8,5.2-5.8,12.7-7c9.3-1.4,22-1,35.3-0.3c11,0.5,21.9,2.1,32.5,4.8c4.8,1.2,9.5,2.7,14.1,4.5l0,0
	c1.9,0.7,8.8,1.2,15.8,1.5c5.9,0.3,11.9,0.7,13.9,1c0.7,0.2-0.7,0.9-0.4,2.4c0.8,6.5,3.3,12.6,7.2,17.8c4.6,5.8,8.1,6.5,11.3,4.1
	l0,0c2.4-1.9,3.1-5,4.1-8.7v0.2c0.7-3.3,1.7-6.9,3.1-8c1.4-1,6-0.5,12.1,0.3c10,1.2,23.4,3.1,37.5-2.4c13.8-5.1,21.5-2.6,28.6-0.2
	c4.1,1.4,8.1,2.7,13.1,2.7c3.8,0,4.6,1.2,4.6,3.1c0,1.5-0.2,3.1-0.4,5c-0.2,1.7-0.3,3.6-0.5,5.6c-0.4,8.2,2.6,11,5.7,14
	c1.7,1.3,3,3.1,3.8,5.1c1,2.4-0.5,5.3-2.1,8.2c-2.1,3.9-4.3,8.2-4.1,14c0.4,6.2,3.3,9.9,6.4,14c2.6,3.3,5.5,6.8,6,12.1
	c1,10.1,5.5,11.8,11.9,11.1c1.4-0.2,2.9-0.5,4.6-0.9c2.4-0.6,4.8-0.9,7.2-0.9c2.9,0,2.8,5.1,2.4,11.8c0,3.1-0.2,6.3,0,9.9
	c0.4,12.3-1.4,14.9-12.6,31.8l0,0l-0.2,0.3l0,0c-6.5,10.1-4,15.4,1.9,19.2c2.2,1.3,4.6,2.5,7.1,3.4c3.8,1.5,7.9,3.1,8.4,5.5
	c2.2,12.3,8.9,14.9,19.6,19.2c1.9,0.7,3.9,1.5,5.7,2.2c13.1,5.7,15.8,1.2,21.9-8.4c1.4-2.2,3.1-5,5.3-8c4.5-5.8,11.5-5.8,21.2-5.8
	c7.6,0,16.5,0,27.2-2.6c8.9-2,10.3-2.7,10.5-2.6l0,0v0.8l0,0c0,3.6,0,7.4,6.7,9.1l0.7,0.2l0,0c8.1,1.9,19.4,4.8,20.3,9.9
	c0.2,0.3-3.9,0.9-9.1,2c-9.5,2.2-21.5,5.1-27,14.7C511.2,232.4,509.2,244.9,511.1,254.3L511.1,254.3L511.1,254.3z"/>
<path class="st1" d="M195.2,86.5c-5.7,0-10.3,4.5-10.3,10.2c0,5.6,10.3,16.4,10.3,16.4s10.3-10.7,10.3-16.4c0,0,0,0,0,0
	C205.5,91,200.9,86.4,195.2,86.5z M195.2,101.3c-2.5,0-4.6-2.1-4.6-4.6c0-2.6,2.1-4.6,4.6-4.6c2.6,0,4.6,2.1,4.6,4.6
	C199.8,99.2,197.7,101.3,195.2,101.3z"/>
</svg>
